<svg xmlns="http://www.w3.org/2000/svg" width="2000" height="2000"><path fill="#030202" d="M1323 206c1.471 1.25 1.471 1.25 2.973 2.523 3.124 2.712 6.099 5.555 9.027 8.477l1.468 1.453c14.68 14.872 23.582 34.897 32.532 53.547l2.168-1.172c16.199-8.466 31.728-12.42 49.633-6.976A88.9 88.9 0 0 1 1444 277v2l1.688.625c3.185 1.894 5.017 4.492 7.312 7.375l1.563 1.563c3.4 3.4 6.153 7.212 8.437 11.437v2h2v3l2 1c15.1 26.5 20.817 57.125 25 87l.402 2.817c4.302 31.698 1.868 64.833-1.203 96.515l-.206 2.145c-.33 3.407-.668 6.812-1.027 10.216-1.398 13.854-1.829 26.453 1.909 39.995q.837 3.258 1.664 6.519l.786 3.065c1.287 5.204 2.065 10.409 2.675 15.728l.28 2.21c2.152 16.949 2.152 16.949 1.005 24.45-.473 3.885-.254 7.77-.125 11.676-.173 2.875-.828 4.151-2.16 6.664a298 298 0 0 0-1.545 5.531c-4.183 15.562-11.276 28.828-20.232 42.153-2.133 3.03-2.133 3.03-3.223 5.316h-2l-.937 2.375C1467 673 1467 673 1466 675h-2v2a381 381 0 0 1-6 5l-1 2h-2v2c-1.375 1.625-1.375 1.625-3 3h-2c-3.957 7.486-6.303 15.843-8.93 23.871l-1.034 3.151q-1.011 3.09-2.005 6.186c-3.354 10.254-7.19 19.4-14.031 27.792q-1.752 2.28-3.5 4.563-1.745 2.222-3.5 4.437l-1.531 1.95-1.469 1.8-1.25 1.547c-2.657 2.586-5.7 4.608-8.75 6.703l.61 1.877q1.388 4.279 2.765 8.56l.96 2.952c1.871 5.825 3.473 11.61 4.665 17.611l.527 2.582c.516 2.802.998 5.609 1.473 8.418l.348 1.993c7.921 45.916 6.493 92.216-8.528 136.484-.923 2.398-.923 2.398-.82 4.523h-2l-1.121 3.762c-2.007 6.019-4.95 11.472-7.941 17.05l-3.223 6.083-1.434 2.682a178 178 0 0 0-2.356 4.608c-1.131 2.22-2.535 4.09-4.05 6.065l-1.633 2.14L1381 1000l4-1 1 3c2.153 1.324 2.153 1.324 4.75 2.438 5.631 2.679 10.062 5.909 14.25 10.562v2l2.313.688c3.262 1.593 4.15 3.075 5.687 6.312v2h2v3h2c2.042 2.905 3 4.401 3 8h2c5.428 15.739 4.175 28.72-2 44q-1.99 3.007-4 6v3l-1.812.688c-2.766 1.659-3.574 3.554-5.188 6.312-3.414 3-3.414 3-6 3v2c-2.45 1.91-2.45 1.91-5.687 4.063l-3.2 2.16c-2.855 1.63-4.885 2.388-8.113 2.777v2c-14.25 5.871-28.263 11.384-44 11l-1.437 3.375c-2.387 5.537-2.387 5.537-4.563 6.625v3l-3 1-2.562 2.563L1328 1143h-2v2a418 418 0 0 1-3.812 2l-2.145 1.125C1318 1149 1318 1149 1315 1149v2c-9.018 2.649-17.547 4.698-27 5l-2.625.121c-8.214.208-16.261-.98-24.375-2.121l-.078 1.8c-1.16 16.945-10.5 29.249-21.922 41.2 1.463 3.579 3.304 5.262 6.375 7.563 6.205 4.814 11.912 10.058 17.625 15.437l2.152 1.988c6.345 6.06 11.558 13.044 16.848 20.012l1.404 1.826c19.699 25.666 34.766 55.948 39.596 88.174l.39 2.273c3.191 21.914-1.02 44.44-9.39 64.727l1.83.124c6.374.523 12.233 1.748 18.358 3.563l2.765.81c24.716 7.392 44.875 19.547 64.047 36.503l1.62 1.428c5.528 4.9 10.924 9.838 15.665 15.526 1.777 2.12 3.59 4.205 5.414 6.284l1.882 2.146L1427 1467l1.817-.535q4.121-1.207 8.245-2.402l2.858-.842c11.727-3.392 24.615-5.713 36.08-.221 5.825 3.82 10.199 8.308 12.406 14.992 4.144 20.992-4.306 39.64-15.406 57.008-4.416 6.521-9.173 12.78-14 19l-2.656 3.445a6597 6597 0 0 1-4.785 6.192c-13.066 17.056-24.714 34.864-35.836 53.226-32.391 53.447-32.391 53.447-48.723 58.137-7.037.942-13.205.669-19.512-2.734-1.81-1.54-2.482-3.135-3.488-5.266l-2.23.623c-62.99 17.487-62.99 17.487-92.727 17.42-11.617 0-17.566 3.558-26.043 10.957q-1.543 1.31-3.09 2.617a611 611 0 0 0-4.665 3.99c-7.703 6.615-16.003 12.475-24.245 18.393l-1.877 1.353c-34.35 24.658-73.842 40.995-116.81 34.584-22.218-3.756-43.33-14.188-60.992-28.038-3.89-2.225-6.744-2.34-11.075-2.114q-2.357.06-4.715.118l-2.512.081c-16.7.507-32.998-.45-49.582-2.421l-2.957-.351c-7.112-.853-14.217-1.746-21.308-2.76-8.017-1.144-11.573-.816-18.145 3.958a202 202 0 0 0-4.652 3.777c-8.025 6.125-17.432 6.72-27.094 5.458-22.247-4.554-40.245-21.773-57.127-35.85-9.213-7.678-18.456-15.31-27.916-22.682-5.15-4.02-10.211-8.142-15.27-12.273a763 763 0 0 0-13.155-10.465c-14.903-11.678-28.813-24.154-41.21-38.52a309 309 0 0 0-4.228-4.77c-8.863-10.116-15.274-19.935-14.914-33.929 1.047-6.129 3.893-10.144 8.539-14.156 16.825-11.388 43.959-6 62.925-2.403L769 1560l.319-1.834c1.168-6.306 2.849-12.212 5.056-18.228l1.04-2.835c10.781-28.564 26.002-52.074 45.858-74.947 2.619-3.017 5.179-6.08 7.727-9.156l-1.398-1.11c-18.73-15.546-30.804-37.732-33.602-61.89-1.595-28.854 4.221-56.145 17-82l1.14-2.319c8.305-16.702 18.398-32.265 28.86-47.681-2.731-4.718-5.908-9.012-9.16-13.379-1.53-2.18-2.69-4.236-3.84-6.621-17.934-1.5-30.9 1.362-47.169 8.818-7.296 3.047-14.949 4.751-22.831 5.182l-2.734.16c-13.214.402-26.281-2.417-36.766-10.785C716 1239 716 1239 714 1236l-2.125.402-2.875.535-2.812.528c-23.993 4.028-52.816 2.952-73.852-10.746-12.67-9.322-22.87-21.723-25.336-37.719-1.928-22.414 8.125-41.27 22-58q2.005-2.497 4-5l-2.562-2.16a3615 3615 0 0 1-8.84-7.486 847 847 0 0 0-3.785-3.186c-24.444-20.808-42.238-47.465-55.063-76.73l-1.292-2.937c-1.923-4.485-3.645-8.882-4.892-13.603-1.156-4.326-2.254-8.03-4.566-11.898-4.22-2.308-8.318-3.04-13.01-3.67-24.337-4.025-45.369-23.934-62.513-40.393-5.942-4.647-12.603-6.725-19.79-8.687-36.47-10.52-68.802-29.99-87.796-63.652-8.075-14.8-14.145-29.758-18.454-46.035-3.51-13.082-9.766-22.64-18.042-33.2C310.868 784.857 290.948 754.585 276 723l-1.069-2.234C264.441 698.704 256.592 675.774 251 652l-.586-2.47c-6.148-27.22-5.078-59.78 9.176-84.26 9.342-14.179 21.372-22.646 37.812-26.762 13.364-2.613 26.313-1.671 39.723-.07 16.934 2.018 33.865 3.478 50.875 1.562a18120 18120 0 0 0-1.846-13.008c-.786-5.549-.786-5.549-1.72-11.074-.74-4.977-.83-9.995-1.04-15.018l-.113-2.466-.092-2.217c-.144-2.258-.144-2.258-.71-4.586-.569-3.125-.524-5.987-.428-9.162l.115-3.866q.072-2.051.147-4.103l.071-2.096c.738-21.284 3.072-41.726 8.136-62.418.425-1.757.829-3.52 1.23-5.283 1.506-6.47 3.598-12.518 6.07-18.683a93 93 0 0 0 2.555-7.52c1.637-5.1 4.287-9.637 6.906-14.29 1.784-3.205 1.784-3.205 3.168-6.702 1.61-3.64 3.545-6.797 5.863-10.008l1.293-1.797c7.943-10.751 18.246-23.377 29.891-30.156 2.534-1.416 2.534-1.416 4.274-3.426 3.247-3.088 6.967-4.983 10.918-7.058l2.527-1.33c8.89-4.521 19.602-9.323 29.785-8.733v-2l3.832-.402 4.98-.536 2.526-.263 2.432-.264 2.237-.238c2.196-.269 2.196-.269 4.993-1.297 4.824-.37 9.664-.477 14.5-.625l2.12-.067c14.364-.439 28.523-.466 42.696 2.227 2.715.47 5.374.71 8.121.902 5.258.418 10.22 1.547 15.325 2.844 3.05.677 6.06 1.074 9.16 1.433 3.518.484 6.943 1.32 10.39 2.161l2.271.545A454 454 0 0 1 638 304l4.918 1.379c13.91 3.916 27.395 8.266 40.793 13.694 4.382 1.775 8.762 3.494 13.226 5.052 5.171 1.827 10.078 4.138 15.02 6.508 2.977 1.4 2.977 1.4 5.93 2.316 3.855 1.301 7.446 2.985 11.113 4.738l2.27 1.08A800 800 0 0 1 752 349l2.244 1.149c9.15 4.703 18.14 9.494 26.799 15.062a83 83 0 0 0 6.828 3.703c4.21 2.068 8.092 4.505 12.004 7.086l2.194 1.435A2275 2275 0 0 1 809 382l2.36 1.552C820.392 389.5 829.336 395.52 838 402l2.98 2.207C851.617 412.12 861.845 420.485 872 429l1.8-.77c5.605-2.326 11.162-4.14 17.048-5.617 2.115-.414 2.115-.414 3.152-1.613 6.923-1.449 13.96-1.088 21-1l.309-1.598c2.695-9.365 8.692-18.266 13.855-26.445a126 126 0 0 0 4.336-7.582c2.45-4.497 5.423-8.533 8.477-12.637 1.818-2.46 3.553-4.958 5.273-7.488 9.088-13.048 19.676-24.948 30.418-36.637 1.52-1.702 2.99-3.45 4.402-5.242 1.758-2.16 3.483-3.85 5.617-5.621 4.059-3.45 7.747-7.184 11.43-11.027C1001 304 1001 304 1003 304l.807-1.818c1.227-2.243 2.35-3.454 4.283-5.1l1.86-1.598 1.987-1.671 2.055-1.75A1305 1305 0 0 1 1020 287l2.91-2.465c5.803-4.84 11.817-9.342 17.965-13.73 2.545-1.832 4.886-3.557 7.07-5.817 2.986-2.89 6.444-4.853 9.993-6.988 5.423-3.257 5.423-3.257 10.523-6.984 3.527-2.8 7.342-5 11.226-7.266l2.338-1.39 4.267-2.506C1088 239 1088 239 1090 239v-2c9.533-5.32 19.072-10.63 28.813-15.562l1.896-.975c4.04-2.018 7.94-3.343 12.291-4.463v-2l1.725-.687q3.919-1.561 7.838-3.125l2.712-1.08c3.825-1.528 7.642-3.057 11.412-4.713 3.538-1.49 7.1-2.71 10.75-3.895 3.89-1.27 7.765-2.535 11.563-4.062 4.97-1.923 10.166-3.139 15.316-4.473q3.613-.944 7.188-2.02c3.627-.98 7.146-1.535 10.871-2.007 4.137-.189 4.137-.189 7.625-1.938 35.26-4.764 74.722-4.628 103 20"/><path fill="#D6C8BF" d="m921 508 1.219 3.086c1.647 3.839 3.87 7.144 6.281 10.539C950.003 553.16 960.225 590.505 965 628l.422 3.116c2.648 20.224 2.827 40.419 2.765 60.786l-.006 2.121a8935 8935 0 0 1-.197 35.146c-.076 10.932-.14 21.864-.172 32.796l-.006 2.117C967.73 793.073 968.963 821.55 975 850l.62 2.958c6.65 31.08 17.594 60.129 33.482 87.655C1011 944 1011 944 1012 947l-3.059-.14c-25.766-.793-55.555 3.958-75.754 21.081-7.285 6.857-12.22 15.55-12.625 25.746.392 7.323 3.439 13.975 8.438 19.313 11.485 10.019 25.515 10.98 40 10 23.46-1.631 58.586-7.53 74.945-26.223A88 88 0 0 0 1048 991c3.815 1.587 6.293 4.026 9.25 6.875 37.018 34.681 86.71 55.28 136.75 61.125l2.456.308c55.507 6.702 127.836 2.793 174.618-31.566 4.93-4.15 8.096-7.238 8.926-13.742 5.076 1.305 8.25 3.6 11.938 7.188l1.586 1.514q1.552 1.485 3.094 2.98a89 89 0 0 0 3.468 3.107c6.7 5.912 11.226 14.284 12.457 23.102.3 14.107-3.952 25.407-13.605 35.734-9.984 9.435-22.217 14.719-34.938 19.375l-2.895 1.066c-6.556 2.085-13.076 2.354-19.913 2.38-3.431.076-5.7.205-8.54 2.218-1.881 2.66-3.28 5.318-4.652 8.274-4.383 9.42-9.487 13.562-19.043 17.23-8.36 2.877-15.628 3.966-24.422 3.754q-2.807-.04-5.615-.078c-2.916-.043-5.831-.093-8.746-.166-12.488-.298-22.602.38-34.174 5.322l-3.255 1.306A346 346 0 0 0 1224 1152c-8.127 3.522-16.251 6.926-24.55 10.02-2.358.757-2.358.757-3.45 1.98-.167 3-.167 3 0 6 1.12 1.335 1.12 1.335 4 1.25 2.94-.043 5.296-.57 8.063-1.55a330 330 0 0 1 10.312-3.384l2.797-.873q2.827-.88 5.656-1.75c5.267-1.65 10.243-3.506 15.2-5.943 1.972-.75 1.972-.75 5.972-.75-3.128 14.597-12.266 25.945-23 36l-2.402 2.406c-9.505 9.49-19.838 17.598-30.598 25.594l-1.809 1.36c-7.357 5.52-14.999 10.545-22.816 15.39l-2.624 1.668-2.478 1.504-2.205 1.362c-2.068.716-2.068.716-4.246-.068-1.883-1.256-3.195-2.527-4.697-4.216-15.632-16.032-36.056-24.06-57.125-30 3.789-2.131 7.866-3.27 12.008-4.504l4.893-1.482 2.585-.78c35.107-7.89 35.107-7.89 65.514-24.234.25-3.042.25-3.042 0-6-1.186-1.407-1.186-1.407-4.57-1.223-4.415.062-8.212 1.226-12.309 2.793l-4.658 1.697-2.473.916c-72.967 26.926-146.763 39.984-224.04 46.11l-4.204.335c-6.291.5-12.582.996-18.876 1.468-3.246.245-6.492.502-9.737.756l-3.628.261-3.313.264-2.905.22c-2.478.211-2.478.211-4.287 2.403.164 3.566.164 3.566 1 7 3.011 1.506 6.105 1.155 9.406 1.137l2.292-.009c8.957-.08 17.871-.666 26.802-1.315l2.757-.197c30.745-2.215 61.444-5.154 91.93-9.741l2.467-.37c8.92-1.352 17.726-2.917 26.52-4.95C1050 1218 1050 1218 1054 1218l-.14 1.73c-.424 9.501 2.571 17.802 6.39 26.395 2.758 6.89 3.066 12.588.281 19.543-6.39 13.499-6.39 13.499-10.66 15.16-2.621.455-5.229.86-7.871 1.172l-2.457.293c-6.226.372-10.651-1.376-16.27-3.918A82.1 82.1 0 0 0 994 1272l-3.824-.156c-13.66-.386-26.568 1.453-39.489 5.906-7.376 2.454-13.051 2.627-20.687 1.25l-2.612-.447c-30.011-5.215-64.366-11.86-83.427-37.924C843 1239 843 1239 843 1237l2.156-.06c3.219-.095 6.438-.205 9.657-.315 1.12-.03 2.239-.062 3.392-.094l3.252-.117 3-.095c2.784-.157 2.784-.157 5.543-2.319.584-2.457.584-2.457 0-5-3.334-3.394-6.443-3.482-11.062-3.73l-2.108-.123a620 620 0 0 0-6.83-.334l-4.739-.233c-4.753-.224-9.506-.406-14.261-.58l-2.128-.083c-20.545-.954-20.545-.954-39.872 5.083-16.415 7.37-36.048 13.696-53.934 7.04-5.412-2.723-9.414-6.057-13.004-10.915-1.65-2.005-2.527-2.978-5.046-3.672-5.352-.19-10.255 1.323-15.348 2.813-18.2 5.01-42.08 1.98-58.606-6.832-10.389-6.31-18.292-13.979-21.875-25.809-3.54-14.96 1.317-28.536 9.15-41.311 3.32-5.135 7.182-9.512 11.499-13.85 3.07-3.495 4.898-6.87 5.664-11.464-1.048-6.288-6.608-10.066-11.5-13.625-51.25-38.302-75.057-100.558-84.398-161.992-6.886-48.984-1.378-106.965 21.893-150.825 2.868-5.527 4.191-9.308 3.505-15.558-1.1-1.284-1.1-1.284-3.75-1.562-3.214.198-3.214.198-4.507 2.046-35.027 59.177-36.707 137.67-21.246 202.92C548 989 548 989 548 993c-15.548-1.974-28.898-10.505-41-20l-2.89-2.25c-3.823-3.058-7.543-6.19-11.106-9.547l-1.55-1.455a518 518 0 0 1-4.24-4.072c-7.087-6.245-14.879-9.532-23.901-11.926-21.438-6.125-42.254-15.2-59.313-29.75l-3.062-2.312c-19.768-18.086-30.928-44.69-37.682-70.045-3.465-12.664-9.304-22.994-17.381-33.268-5.735-7.463-11.179-15.059-16.447-22.857-2.777-4.109-5.593-8.163-8.553-12.143C300.267 745.265 284.38 713.885 273 681l-.882-2.521c-6.855-19.819-11.285-40.046-11.368-61.042l-.062-3.884c-.074-18.323 4.72-36.656 17.152-50.62 10.669-10.101 23.98-12.308 38.098-12.245l3.733.003c8.126.084 16.032.706 24.079 1.809 12.136 1.663 24.015 2.018 36.25 1.5l2.309-.097c21.603-1.16 42-10.023 61.95-17.695 22.288-8.554 44.51-15.375 68.053-19.395l2.966-.507c13.015-2.127 25.879-2.512 39.034-2.494l2.553.003c50.357.121 119.732 9.29 160.135 43.185a109 109 0 0 1 4 5l-1.554 1.095C703.322 574.015 703.322 574.015 690 588c-.57 3.149-.57 3.149 0 6 1.81 2.186 1.81 2.186 4.281 2.43 3.769-.596 5.638-2.695 8.219-5.305 9.945-9.554 20.653-17.063 32.5-24.125l2.898-1.852C778.963 538.958 826.22 522.435 874 514l4.417-.79c4.015-.717 8.033-1.417 12.052-2.108q2.375-.409 4.746-.825c8.622-1.502 16.995-2.737 25.785-2.277"/><path fill="#C4AA98" d="m1422 278 2.387 1.156c1.884.921 3.75 1.878 5.613 2.844v2l1.875.938L1436 287v2l1.75.762c15.49 8.524 23.974 32.448 29.25 48.238l.98 2.346c1.066 2.774 1.767 5.475 2.422 8.373l.76 3.328.775 3.453.764 3.36q.767 3.374 1.528 6.75a835 835 0 0 0 1.572 6.778c7.738 32.774 5.937 66.708 4.262 100.112l-.132 2.618q-.188 3.645-.396 7.288l-.117 2.166c-.197 3.259-.527 6.287-1.418 9.428-2.77 19.714-3.361 37.58 2.372 56.747 1.666 5.973 2.623 12.14 3.628 18.253l.559 3.121c2.288 20.11 1.451 41.43-7.559 59.879l-1.574 3.3c-7.732 15.611-18.388 29.2-30.426 41.7-8.727 9.123-12.52 18.988-16.25 30.938-5.07 15.646-10.457 30.782-21.75 43.062l-1.984 2.371c-3.455 4.12-3.455 4.12-5.016 5.629h-2l-1.066-2.316q-1.582-3.431-3.168-6.86-1.715-3.71-3.407-7.43c-7.48-16.373-15.965-31.674-26.359-46.394l-1.252-1.78c-7.656-10.739-17.504-24.081-28.748-31.22-3.192.226-3.192.226-6 1-.573 4.513-.573 4.513 1.074 8.62 1.557 1.629 3.177 3.134 4.863 4.63a787 787 0 0 1 3.614 3.43l1.795 1.702c14.006 13.703 25.563 31.962 34.088 49.45 1.201 2.43 2.438 4.774 3.816 7.106 1.511 2.645 2.73 5.277 3.911 8.079.861 2.036 1.747 4.06 2.636 6.085 8.017 18.458 14.088 37.194 18.203 56.898l.468 2.202c12.943 62.586 3.223 126.686-31.683 180.032-2.55 3.951-3.334 6.011-2.785 10.766 3.394 5.304 7.27 7.583 13 10-1.077 7.54-4.022 11.353-10 16-29.01 19.18-65.865 28.21-100 32l-2.35.286c-9.436 1.023-18.92.958-28.4.964l-2.804.002c-69.725-.08-132.22-20.578-184.446-67.252l-1.762-1.84c-1.198-1.388-1.198-1.388-3.238-1.16-1.233 1.564-1.233 1.564-2.5 3.563-12.627 17.117-42.519 23.978-62.395 26.989-34.319 4.54-34.319 4.54-48.605-4.552l-2.5-2-2.5-1.625c-5.735-5.448-9.53-12.493-9.812-20.437.16-9.785 4.673-17.992 11.312-24.938 14.177-13.569 31.962-18.14 50.75-21.25l3.193-.532c9.24-1.44 17.813-1.587 27.057-.218l-1.8-2.91c-29.83-48.967-43.685-107.1-43.266-164.273l.014-3.747q.015-3.994.038-7.987c.023-4.249.036-8.498.048-12.746.033-12.074.074-24.147.137-36.22q.053-10.035.07-20.07c.007-3.513.019-7.026.046-10.54.11-15.09-.276-29.992-1.662-45.014l-.187-2.03c-2.195-23.336-6.28-46.118-13.438-68.463l-.901-2.84c-6.161-19.043-14.805-37.205-26.797-53.29-2.471-3.353-3.302-4.558-3.302-8.87l-3-1c24.097-3.147 47.945-4.386 72.25-4.312l3.857.008c12.272.042 24.535.2 36.795.757l2.54.114a97.4 97.4 0 0 1 15.324 2.015c3.505.656 6.678.677 10.234.418 2.209-1.828 2.209-1.828 2.438-4.437-.177-2.726-.177-2.726-2.5-4.25-3.256-1.455-6.486-2.433-9.938-3.313-.143-8.571-.143-8.571 1-12h2l.254-2.562c.867-3.994 2.544-7.02 4.684-10.438l1.213-1.972c12.431-19.941 28.01-37.17 44.474-53.84l1.831-1.871c1.476-1.479 3.006-2.904 4.544-4.317h2v-2c1.8-1.629 1.8-1.629 4.313-3.562a434 434 0 0 0 11.187-9c18.353-15.016 39.725-28.062 61.5-37.438l4.688-2.125A910 910 0 0 1 1197 351l2.176-.957c7.396-3.12 15.053-5.264 22.763-7.45 1.803-.519 3.597-1.069 5.39-1.624 16.3-4.979 33.195-7.65 50.022-10.157 17.889-2.677 33.835-6.005 49.776-14.781a333 333 0 0 1 5.42-2.902c8.731-4.75 16.446-10.453 24.313-16.49 18.716-14.327 40.911-31.199 65.14-18.639"/><path fill="#FEFEFE" d="M1125.313 1232.582c17.636 11.285 27.29 24.428 35.687 43.418 2.017 4.342 2.017 4.342 5 8 2.087-.09 4.17-.245 6.25-.437 6.09-.095 6.09-.095 8.836 2.117 1.62 2.376 2.803 4.668 3.914 7.32l1.016 2.355c2.513 6.638 2.798 12.053-.016 18.645l-1.674.104c-24.355 1.627-43.38 8.757-63.326 22.896q-1.714 1.171-3.43 2.34c-15.227 10.474-31.02 22.891-35.57 41.66-1.001 8.568-.254 15.43 3.129 23.32 1.007 3.1.97 5.498.809 8.743-.233 7.473 2.09 12.609 7.046 18.16 5.827 5.527 12.414 9.243 20.016 11.777 1.027 2.11 1.027 2.11 1.938 4.75 2.627 6.909 5.412 10.284 12.062 13.453 4.446 1.772 8.223 1.871 13.02 1.754q2.124-.038 4.248-.072l2.244-.038c10.739-.16 21.019-.213 31.55 2.153 10.9 2.358 21.71 2.456 32.813 2.5l2.637.03c16.516.156 31.48-2.259 46.488-9.53l3.238-1.559c7.757-3.946 14.307-8.618 20.762-14.441l2.367-2.117c7.924-7.486 14.364-16.71 19.172-26.492 2.55-2.428 5.02-2.242 8.461-2.391 3.316.425 6.511 1.18 9.75 2l2.778.688c20.159 5.181 38.282 13.107 54.472 26.312l1.603 1.295c7.575 6.158 14.655 12.768 21.584 19.642l2.216 2.188c3.387 3.408 6.4 6.542 8.597 10.875l-2 2c.097 4.342.097 4.342 2 8 4.668.57 7.411-.597 11.477-2.785 12.147-5.848 28.466-11.149 41.835-7.152 3.386 1.473 5.452 3.304 7.063 6.742 3.62 12.712-1.851 26.316-7.9 37.382-6.75 11.796-15.194 22.547-23.471 33.292-17.121 22.227-32.402 45.261-46.68 69.41-21.308 35.954-21.308 35.954-34.324 41.111-3.819.453-5.997.554-9.375-1.312C1352 1659 1352 1659 1351 1656c-6-3-13.97-.568-20.11 1.047l-2.547.64a1170 1170 0 0 0-5.343 1.359c-4.625 1.184-9.26 2.328-13.895 3.474l-2.721.674c-21.38 5.28-43.317 8.69-65.357 9.4-7.821 1.05-13.606 4.04-19.715 8.906l-2.073 1.6a694 694 0 0 0-6.239 4.9l-1.883 1.49-1.804 1.428-3.5 2.77-1.734 1.374c-4.798 3.78-9.752 7.26-14.806 10.692a347 347 0 0 0-8.401 5.975c-26.43 19.233-55.439 32.382-88.497 32.646l-3.646.042c-34.894-.185-66.543-21.124-91.272-44.151a160 160 0 0 0-6.644-5.766L988 1692v-2h-2c-1.148-1.46-1.148-1.46-2.375-3.375-2.564-3.787-2.564-3.787-6.625-5.625-3.185.308-3.185.308-6 1-.962 2.766-1.352 4.146-1 7 4.479 7.687 11.667 13.853 18 20q2.502 2.498 5 5c-11.57.277-22.875-.44-34.382-1.6q-4.119-.41-8.24-.802c-8.865-.861-17.666-1.884-26.477-3.197-10.408-1.44-20.033-1.712-28.901 4.599-1.887 1.493-3.687 3.009-5.43 4.668-4.716 4-9.574 3.987-15.574 3.906-7.376-.723-13.735-4.885-19.996-8.574l-2.86-1.598c-8.401-4.977-15.726-11.485-23.176-17.754a714 714 0 0 0-7.839-6.46l-2.605-2.13L815 1683l-2.55-2.09A8162 8162 0 0 0 804 1674l-1.833-1.501c-7.848-6.425-15.747-12.747-23.812-18.897-5.3-4.078-10.456-8.338-15.632-12.57a557 557 0 0 0-8.973-7.157c-7.83-6.258-15.406-12.956-21.844-20.656a148 148 0 0 0-4.75-5.25c-18.27-19.32-18.27-19.32-18.093-29.594 1.125-4.053 2.44-5.157 5.937-7.375 12.408-6.204 36.912-.14 50 2l3 1c1.955.232 1.955.232 4 .25l2.063.078c2.583-.437 3.275-1.321 4.937-3.328.917-2.262.917-2.262 1.543-4.84l.802-2.941.842-3.157c4.81-17.191 11.387-33.334 19.813-49.062l.984-1.85c4.624-8.622 9.922-16.494 16.016-24.15l2.254-2.84c15.144-18.778 15.144-18.778 19.746-21.16 2.852.637 2.852.637 6 2l3.086 1.332 3.289 1.48c11.616 5.043 23.698 10.125 36.625 8.188 2.35-1.898 2.35-1.898 2.125-5.125L892 1466c-3.038-1.706-5.665-2.39-9.102-2.895-5.72-.976-10.885-2.672-16.273-4.793l-2.761-1.076c-23.519-9.353-41.131-24.858-51.739-48.049-11.058-28.81-4.434-62.757 7.563-90.187 8.606-18.841 19.618-35.961 31.312-53 3.393 1.317 6.276 2.744 9.313 4.75 17.678 10.623 39.873 14.346 59.687 19.25-1.976 2.074-3.943 3.743-6.336 5.313l-1.956 1.302-2.083 1.385c-16.178 10.978-30.696 24.268-42.781 39.668-1.563 1.977-3.193 3.802-4.907 5.645-2.303 3.195-2.55 4.83-1.937 8.687 1.937 2.364 1.937 2.364 5.438 2.313 3.389-.024 3.389-.024 5.25-1.376 1.461-2.077 1.461-2.077 2.94-5.062 2.58-4.528 6.017-8.085 9.622-11.812l2.046-2.142a1179 1179 0 0 1 3.975-4.129 374 374 0 0 0 4.034-4.257C911.502 1306.44 937.382 1291.95 963 1286l2.758-.68c21.981-4.571 45.837-1.59 65.054 10.055 10.039 6.688 17.683 15.566 20.188 27.625.693 6.732.337 12.068-3 18l-1.687 1.625c-1.586 1.378-1.586 1.378-1.563 4-.007 2.328-.007 2.328 1.25 3.375.411 5.863.081 10.875-3 16-3.437 3.8-6.965 6.51-11.602 8.707-2.89 1.617-3.962 2.86-5 6.008q-.552 2.101-1.023 4.223c-1.35 5.754-2.597 9.159-7.375 13.062-4.517 1.882-8.5 2.09-13.375 2.313-10.328.718-16.553 6.27-24.562 12.41-5.125 3.81-10.525 7.272-16.083 10.422-1.845 1.028-1.845 1.028-3.98 2.855-.738 3.689.304 5.771 2 9l-2.387 1.95c-26.26 21.67-43.405 46.648-51.613 80.05l-.535 2.042c-2.844 11.24-2.746 22.688-2.778 34.208l-.01 2.337c-.058 22.956 4.17 44.765 14.323 65.413l1.36 2.871c7.384 14.617 22.146 36.561 37.64 43.129 3.836-.144 3.836-.144 7-2 .486-2.852.486-2.852 0-6-2.016-2.41-2.016-2.41-4.812-4.5-6.795-5.723-11.989-12.332-17.188-19.5l-1.325-1.817c-22.437-31.15-28.517-68.641-22.675-106.183 6.257-35.745 25.896-64.943 55.375-85.875 2.424-1.678 4.812-3.23 7.387-4.668L984 1435c.66-3.677-.303-5.79-2-9l2.922-2.082 3.828-2.73 1.922-1.37 1.875-1.338 1.842-1.298c1.718-1.217 1.718-1.217 3.556-2.952 3.175-1.9 6.571-1.854 10.18-2.105 8.55-.81 15.343-2.44 21.469-8.832 2.605-3.254 3.867-6.808 5.156-10.73 2.2-6.08 4.656-9.521 10.07-13.094 5.61-3.78 9.105-9.074 11.18-15.469.498-2.76.724-5.518.938-8.312.459-4.944.951-9.123 3.187-13.626 4.148-9.173 3.054-21.023-.312-30.25-2.1-4.74-4.544-8.796-7.813-12.812 1.463-3.26 3.322-5.717 5.625-8.437 9.43-11.647 16.151-22.573 15.871-37.797-.733-5.567-2.764-10.306-5.023-15.407-2.074-4.73-3.42-8.966-3.535-14.171 1.366-2.814 3.04-3.666 5.949-4.68 17.36-4.172 39.994 5.27 54.426 14.074"/><path fill="#EED5C3" d="M1247.481 197.815c2.219-.002 4.437-.02 6.656-.04 26.011-.104 47.862 6.438 66.8 24.725 13.804 13.886 22.676 32.488 32.063 49.5l1.4 2.52c.95 1.785 1.79 3.628 2.6 5.48-1.271 3.814-3.522 5.249-6.625 7.562l-1.75 1.32c-27.521 20.522-27.521 20.522-40.625 22.118v2c-12.465 3.309-24.868 6.006-37.603 8.025-16.34 2.606-32.417 5.643-48.397 9.975l-2.548.665c-27.213 7.158-53.194 19.567-76.452 35.335l-1.989 1.333c-7.662 5.14-15.14 10.34-22.19 16.304C1117 386 1117 386 1115 386v2a113 113 0 0 1-5.312 4.437c-3.853 3.015-3.853 3.015-7.418 6.348C1101 400 1101 400 1099 400v2c-1.645 1.586-1.645 1.586-3.812 3.375-2.25 1.86-4.092 3.494-5.825 5.852L1088 413h-2l-1 3h-2l-.695 1.672c-1.673 2.985-3.805 5.114-6.18 7.578-15.829 16.873-31.033 37.697-37.285 60.145l-1.055 3.764L1037 492l-2.766-.013q-13.12-.062-26.241-.09-6.74-.014-13.48-.048c-27.962-.14-55.577.565-83.325 4.401l-2.38.321A682 682 0 0 0 860 505l-3.615.756C812.548 515.129 770.335 531.745 732 555l-2.562-2.375c-51.958-43.861-136.648-55.173-201.844-49.748-31.818 3.159-62.108 12.514-91.89 23.734a1598 1598 0 0 1-17.766 6.514l-3.135 1.146-2.9 1.05-2.517.914c-2.445.784-4.86 1.31-7.386 1.765-1.519-5.03-2.66-10.013-3.562-15.188l-.381-2.056C392.72 490.55 393.764 455.97 400 426l.567-2.838C407.177 390.77 419.125 359.557 443 336l2.383-2.379C454.53 324.941 469.782 312 483 312v-2c3.33-.806 6.665-1.592 10-2.375l2.773-.672c14.73-3.43 29.17-4.33 44.227-4.266l2.578.004c14.004.038 27.597.989 41.422 3.309q2.39.367 4.781.727c14.52 2.24 28.934 5.131 43.016 9.34 3.114.907 6.235 1.685 9.39 2.433 4.872 1.19 9.489 2.763 14.176 4.535 2.466.902 4.928 1.674 7.45 2.402 13.428 3.938 26.324 9.28 39.018 15.127a509 509 0 0 0 8.518 3.752c8.494 3.671 16.865 7.565 25.188 11.609q3.139 1.519 6.283 3.026c7.914 3.822 15.61 7.886 23.199 12.32a210 210 0 0 0 8.044 4.416c14.236 7.749 27.768 16.774 41.25 25.75l1.743 1.16c6.457 4.296 12.787 8.688 18.944 13.403q1.998 1.486 4 2.965C852.792 429.2 852.792 429.2 859 435l-.484 1.777c-.901 3.884-1.418 7.704.672 11.223 2.615 1.443 3.972.804 6.812 0 2.533-1.447 2.533-1.447 5.063-3.25 15.66-10.258 32.303-12.753 50.6-13.268l2.732-.103 2.464-.076c2.436-.187 2.436-.187 5.141-2.303.5-2.457.5-2.457 0-5l-1.562-1.5L929 421c.392-4.171 2.028-7.087 4.188-10.625 2.315-3.816 4.5-7.653 6.597-11.594 3.149-5.8 6.715-11.23 10.465-16.656l2.001-2.91c14.296-20.662 30.796-39.306 48.499-57.09l2.112-2.126c4.55-4.537 9.268-8.81 14.138-12.999q1.717-1.515 3.43-3.035c17.353-15.296 35.864-29.944 55.57-42.11a425 425 0 0 0 7.188-4.554c8.46-5.45 17.01-10.669 25.812-15.551l2.59-1.448 2.41-1.318 2.125-1.165C1118 237 1118 237 1121 237v-2l1.893-.854q4.304-1.947 8.607-3.896l2.977-1.344c4.31-1.954 8.6-3.918 12.812-6.078 3.44-1.744 6.933-3.08 10.586-4.328 4.171-1.45 8.294-2.939 12.375-4.625 3.982-1.626 7.99-2.913 12.133-4.066 2.12-.655 4.203-1.43 6.27-2.239 4.828-1.83 9.752-3.003 14.785-4.133l2.893-.657c7.477-1.642 14.913-2.702 22.528-3.42 13.504-1.546 13.504-1.546 18.622-1.545"/><path fill="#FEFEFE" d="M1048 991c3.815 1.587 6.293 4.026 9.25 6.875 37.018 34.681 86.71 55.28 136.75 61.125l2.456.308c55.507 6.702 127.836 2.793 174.618-31.566 4.93-4.15 8.096-7.238 8.926-13.742 5.076 1.305 8.25 3.6 11.938 7.188l1.586 1.514q1.552 1.485 3.094 2.98a89 89 0 0 0 3.468 3.107c6.7 5.912 11.226 14.284 12.457 23.102.3 14.107-3.952 25.407-13.605 35.734-9.984 9.435-22.217 14.719-34.938 19.375l-2.895 1.066c-6.556 2.085-13.076 2.354-19.913 2.38-3.431.076-5.7.205-8.54 2.218-1.881 2.66-3.28 5.318-4.652 8.274-4.383 9.42-9.487 13.562-19.043 17.23-8.36 2.877-15.628 3.966-24.422 3.754q-2.807-.04-5.615-.078c-2.916-.043-5.831-.093-8.746-.166-12.488-.298-22.602.38-34.174 5.322l-3.255 1.306A346 346 0 0 0 1224 1152c-8.127 3.522-16.251 6.926-24.55 10.02-2.358.757-2.358.757-3.45 1.98-.167 3-.167 3 0 6 1.12 1.335 1.12 1.335 4 1.25 2.94-.043 5.296-.57 8.063-1.55a330 330 0 0 1 10.312-3.384l2.797-.873q2.827-.88 5.656-1.75c5.267-1.65 10.243-3.506 15.2-5.943 1.972-.75 1.972-.75 5.972-.75-3.128 14.597-12.266 25.945-23 36l-2.402 2.406c-9.505 9.49-19.838 17.598-30.598 25.594l-1.809 1.36c-7.357 5.52-14.999 10.545-22.816 15.39l-2.624 1.668-2.478 1.504-2.205 1.362c-2.068.716-2.068.716-4.246-.068-1.883-1.256-3.195-2.527-4.697-4.216-15.632-16.032-36.056-24.06-57.125-30 3.789-2.131 7.866-3.27 12.008-4.504l4.893-1.482 2.585-.78c35.107-7.89 35.107-7.89 65.514-24.234.25-3.042.25-3.042 0-6-1.186-1.407-1.186-1.407-4.57-1.223-4.415.062-8.212 1.226-12.309 2.793l-4.658 1.697-2.473.916c-72.967 26.926-146.763 39.984-224.04 46.11l-4.204.335c-6.291.5-12.582.996-18.876 1.468-3.246.245-6.492.502-9.737.756l-3.628.261-3.313.264-2.905.22c-2.478.211-2.478.211-4.287 2.403.164 3.566.164 3.566 1 7 3.011 1.506 6.105 1.155 9.406 1.137l2.292-.009c8.957-.08 17.871-.666 26.802-1.315l2.757-.197c30.745-2.215 61.444-5.154 91.93-9.741l2.467-.37c8.92-1.352 17.726-2.917 26.52-4.95C1050 1218 1050 1218 1054 1218l-.14 1.73c-.424 9.501 2.571 17.802 6.39 26.395 2.758 6.89 3.066 12.588.281 19.543-6.39 13.499-6.39 13.499-10.66 15.16-2.621.455-5.229.86-7.871 1.172l-2.457.293c-6.226.372-10.651-1.376-16.27-3.918A82.1 82.1 0 0 0 994 1272l-3.824-.156c-13.66-.386-26.568 1.453-39.489 5.906-7.376 2.454-13.051 2.627-20.687 1.25l-2.612-.447c-30.011-5.215-64.366-11.86-83.427-37.924C843 1239 843 1239 843 1237l2.156-.06c3.219-.095 6.438-.205 9.657-.315l3.392-.094 3.252-.117 3-.095c2.784-.157 2.784-.157 5.543-2.319.584-2.457.584-2.457 0-5-3.334-3.394-6.443-3.482-11.062-3.73l-2.108-.123a620 620 0 0 0-6.83-.334l-4.739-.233c-4.753-.224-9.506-.406-14.261-.58l-2.128-.083c-20.545-.954-20.545-.954-39.872 5.083-16.415 7.37-36.048 13.696-53.934 7.04-5.412-2.723-9.414-6.057-13.004-10.915-1.65-2.005-2.527-2.978-5.046-3.672-5.352-.19-10.255 1.323-15.348 2.813-18.2 5.01-42.08 1.98-58.606-6.832-10.389-6.31-18.292-13.979-21.875-25.809-3.3-13.945.6-26.992 7.875-39.062 3.18-5.133 3.18-5.133 5.872-6.66 3.191.15 4.677 2.053 7.066 4.097 28.286 15.821 61.843 20.393 93.761 20.316 2.738-.003 5.474.02 8.212.045 15.591.057 30.754-1.609 45.715-6.174l2.65-.788C841.257 1148.588 881.13 1118.035 906 1073l1.046-1.872c10.413-18.881 15.212-39.029 18.954-60.128l1.532 1.214c4.065 3.146 7.84 5.696 12.655 7.598l2.981 1.208c26.13 9.046 62.182-2.6 85.988-13.532 8.028-4.201 13.942-8.816 18.844-16.488"/><path fill="#C4AA98" d="m554.313 513.813 2.552.002c50.357.121 119.732 9.29 160.135 43.185a109 109 0 0 1 4 5l-1.554 1.095C703.322 574.015 703.322 574.015 690 588c-.57 3.149-.57 3.149 0 6 1.952 1.952 3.532 2.848 6 4l-2.098 1.879C681.763 610.867 670.126 622.107 660 635l-2.016 2.348c-17.729 20.716-31.171 45.092-43.976 69.03l-1.5 2.798a1207 1207 0 0 0-3.118 5.878l-1.585 2.973-1.415 2.676c-2.388 3.946-2.388 3.946-4.39 5.297-3.687.188-3.687.188-7 0q-3.105 5.7-6.189 11.414-1.047 1.935-2.1 3.869c-3.687 6.767-7.261 13.414-9.718 20.75-1.777 3.518-4.352 4.753-7.993 5.967-9.706 1.302-19.538 1.202-29.312 1.188l-2.404-.003c-42.424-.109-80.834-9.527-118.06-30.395-2.831-1.006-4.395-.727-7.224.21-4.736 5.131-5.522 8.695-5.48 15.555 1.011 7.256 4.905 14.086 10.28 19.011 2.2 2.434 2.2 2.434 2.188 4.961-1.036 2.592-2.25 4.716-3.8 7.035-6.987 11.449-9.592 24.214-6.493 37.395 1.977 5.273 4.948 10.06 7.938 14.816C418 840 418 840 418.93 842.164c1.364 2.34 2.617 2.762 5.07 3.836q2.075 1.451 4.125 2.938c9.287 6.18 18.997 6.641 29.875 7.062l.664 2.973c4.318 18.644 10.859 39.013 27.918 49.672 8.805 4.935 16.074 6.558 26.043 4.668 4.996-1.943 9.568-4.506 13.375-8.313 2.82.023 2.82.023 6.125.375l3.32.336L538 906l.044 2.142c.609 26.718 3.285 52.233 9.453 78.262C548 989 548 989 548 993c-15.548-1.974-28.898-10.505-41-20l-2.89-2.25c-3.823-3.058-7.543-6.19-11.106-9.547l-1.55-1.455a518 518 0 0 1-4.24-4.072c-7.087-6.245-14.879-9.532-23.901-11.926-21.438-6.125-42.254-15.2-59.313-29.75l-3.062-2.312c-19.768-18.086-30.928-44.69-37.682-70.045-3.465-12.664-9.304-22.994-17.381-33.268-5.735-7.463-11.179-15.059-16.447-22.857-2.777-4.109-5.593-8.163-8.553-12.143C300.267 745.265 284.38 713.885 273 681l-.882-2.521c-6.855-19.819-11.285-40.046-11.368-61.042l-.062-3.884c-.074-18.323 4.72-36.656 17.152-50.62 10.669-10.101 23.98-12.308 38.098-12.245l3.733.003c8.126.084 16.032.706 24.079 1.809 12.136 1.663 24.015 2.018 36.25 1.5l2.309-.097c21.603-1.16 42-10.023 61.95-17.695 22.288-8.554 44.51-15.375 68.053-19.395l2.966-.507c13.015-2.127 25.879-2.512 39.034-2.494"/><path fill="#FEFEFE" d="m921 508 1.219 3.086c1.647 3.839 3.87 7.144 6.281 10.539C950.003 553.16 960.225 590.505 965 628l.422 3.116c2.648 20.224 2.827 40.419 2.765 60.786l-.006 2.121a8935 8935 0 0 1-.197 35.146c-.076 10.932-.14 21.864-.172 32.796l-.006 2.117C967.73 793.073 968.963 821.55 975 850l.62 2.958c6.65 31.08 17.594 60.129 33.482 87.655C1011 944 1011 944 1012 947l-3.059-.14c-26.7-.822-57.81 4.27-77.941 23.14l-1.652 2.242L928 974h-2l-.408-1.958C910.947 902.815 875.614 835.775 834 779l-1.421-1.945c-6.061-8.267-12.314-16.288-19.009-24.051-2.353-2.75-4.624-5.55-6.883-8.379-14.37-17.59-30.754-34.687-48.687-48.625q-2.785-2.37-5.562-4.75c-7.819-6.529-16.125-12.374-24.438-18.25l-1.77-1.262A438 438 0 0 0 682 644l-3.14-1.75c-6.537-3.486-12.494-5.409-19.86-6.25 3.004-4.802 6.418-8.836 10.313-12.937l1.844-1.956c9.403-9.915 18.758-19.748 29.515-28.209 2.038-1.661 3.792-3.352 5.578-5.273 7.432-7.683 17.05-13.895 26.277-19.191 2.774-1.608 5.457-3.335 8.16-5.059C781.323 538.384 827.15 522.271 874 514l4.417-.79c4.015-.717 8.033-1.417 12.052-2.108q2.375-.409 4.746-.825c8.622-1.502 16.995-2.737 25.785-2.277"/><path fill="#D68E91" d="M1247.481 197.815c2.219-.002 4.437-.02 6.656-.04 26.011-.104 47.862 6.438 66.8 24.725 13.804 13.886 22.676 32.488 32.063 49.5l1.4 2.52c.95 1.785 1.79 3.628 2.6 5.48-1.271 3.814-3.522 5.249-6.625 7.562l-1.75 1.32c-27.521 20.522-27.521 20.522-40.625 22.118v2c-12.465 3.309-24.868 6.006-37.603 8.025-16.34 2.606-32.417 5.643-48.397 9.975l-2.548.665c-27.213 7.158-53.194 19.567-76.452 35.335l-1.989 1.333c-7.662 5.14-15.14 10.34-22.19 16.304C1117 386 1117 386 1115 386v2a113 113 0 0 1-5.312 4.437c-3.853 3.015-3.853 3.015-7.418 6.348C1101 400 1101 400 1099 400v2c-1.645 1.586-1.645 1.586-3.812 3.375-2.25 1.86-4.092 3.494-5.825 5.852L1088 413h-2l-1 3h-2l-.695 1.672c-1.673 2.985-3.805 5.114-6.18 7.578-18.116 19.311-31.845 41.27-39.125 66.75h-86v-1h5l-2-7c-5.612.923-11.098 1.97-16.562 3.562-5.125 1.463-10.129 2.104-15.438 2.438-1.74-4.075-2.983-8.227-4.125-12.5-.182-.651-.364-1.302-.55-1.973-.962-3.578-1.643-6.818-1.325-10.527 1.491-1.491 2.974-1.405 5.043-1.719l2.506-.386 2.639-.395 5.105-.781 2.447-.371c2.757-.425 5.51-.88 8.26-1.348-2.989-5.689-5.854-11.057-10-16v-2l-2.309.656c-6.447 1.739-12.019 2.678-18.691 2.344q-.504-2.187-1-4.375l-.562-2.46C909 436 909 436 909 434h-9v-1c7.217-1.026 14.38-1.313 21.662-1.518l2.733-.103 2.464-.076c2.436-.187 2.436-.187 5.141-2.303.5-2.457.5-2.457 0-5l-1.562-1.5L929 421c.392-4.171 2.028-7.087 4.188-10.625 2.315-3.816 4.5-7.653 6.597-11.594 3.149-5.8 6.715-11.23 10.465-16.656l2.001-2.91c14.296-20.662 30.796-39.306 48.499-57.09l2.112-2.126c4.55-4.537 9.268-8.81 14.138-12.999q1.717-1.515 3.43-3.035c17.353-15.296 35.864-29.944 55.57-42.11a425 425 0 0 0 7.188-4.554c8.46-5.45 17.01-10.669 25.812-15.551l2.59-1.448 2.41-1.318 2.125-1.165C1118 237 1118 237 1121 237v-2l1.893-.854q4.304-1.947 8.607-3.896l2.977-1.344c4.31-1.954 8.6-3.918 12.812-6.078 3.44-1.744 6.933-3.08 10.586-4.328 4.171-1.45 8.294-2.939 12.375-4.625 3.982-1.626 7.99-2.913 12.133-4.066 2.12-.655 4.203-1.43 6.27-2.239 4.828-1.83 9.752-3.003 14.785-4.133l2.893-.657c7.477-1.642 14.913-2.702 22.528-3.42 13.504-1.546 13.504-1.546 18.622-1.545"/><path fill="#FEFEFE" d="m1330.063 1414.625 2.743.799c17.791 5.33 33.675 12.877 48.194 24.576.535.43 1.07.86 1.62 1.304 7.568 6.155 14.643 12.764 21.568 19.633l2.215 2.188c3.387 3.408 6.4 6.542 8.597 10.875l-2 2c.097 4.342.097 4.342 2 8 4.668.57 7.411-.597 11.477-2.785 12.147-5.848 28.466-11.149 41.835-7.152 3.386 1.473 5.452 3.304 7.063 6.742 3.62 12.712-1.851 26.316-7.9 37.382-6.75 11.796-15.194 22.547-23.471 33.292-17.121 22.227-32.402 45.261-46.68 69.41-21.308 35.954-21.308 35.954-34.324 41.111-3.819.453-5.997.554-9.375-1.312C1352 1659 1352 1659 1351 1656c-6-3-13.97-.568-20.11 1.047l-2.547.64a1170 1170 0 0 0-5.343 1.359c-4.625 1.184-9.26 2.328-13.895 3.474l-2.721.674c-21.594 5.333-43.45 8.23-65.65 9.556-3.74.342-7.141 1.172-10.734 2.25-3.106-5.93-5.53-11.902-7.812-18.187-4.382-14.176-4.382-14.176-13.188-24.813l-3 .125-3-.125c-2.137-3.205-2.253-4.262-1.609-7.94.706-2.387 1.735-4.382 2.91-6.576 2.835-5.562 4.886-11.245 6.824-17.171.346-1.05.692-2.1 1.05-3.18 2.57-7.967 4.607-15.838 5.825-24.133l.54-3.523c4.051-34.016-3.55-68.586-11.54-101.477l1.933-.028c18.236-.334 34.447-1.92 51.067-9.972l3.238-1.559c7.757-3.946 14.307-8.618 20.762-14.441l2.367-2.117c7.584-7.164 13.17-15.731 18.508-24.633 5.18-7.92 17.526-2.881 25.188-.625"/><path fill="#FEFEFE" d="M1227 1208c4.898 1.525 8.11 4.35 11.875 7.688l1.978 1.743c17.463 15.558 31.75 32.74 44.147 52.569l1.139 1.803c10.003 16.067 17.738 34.716 21.861 53.197l.672 2.918c5.799 30.288-1.74 62.542-18.672 88.082-2.801 3.872-5.783 7.468-9 11l-2.074 2.355c-15.174 16.296-37.268 24.728-59.239 25.753-2.397.061-4.79.082-7.187.08l-2.615-.003c-9.03-.084-18.28-.627-27.094-2.706-10.634-2.383-21.601-1.544-32.426-1.287-2.732.06-5.464.096-8.197.128l-2.52.082c-5.375.046-8.384-.816-12.648-4.402-1.172-1.965-1.172-1.965-1.75-3.937l-.695-2.102a86 86 0 0 1-1.18-4.774c-1.99-3.165-4.44-3.381-7.934-4.39-7.085-2.313-12.11-6.848-16.441-12.797-1.349-2.697-1.188-4.988-1.312-8-.299-4.515-.889-8.064-2.75-12.187-2.98-6.758-2.888-12.787-.5-19.75 9.782-21.78 39.68-40.195 61.484-48.657 7.1-2.517 14.027-3.77 21.515-4.468 9.39-.675 9.39-.675 17.563-4.938 4.96-6.312 4.904-14.345 4-22-.956-3.875-2.317-7.386-4-11l-1.133-2.473c-2.617-5.19-5.678-9.675-10.867-12.527-2.368-.556-4.556-.805-6.984-.895C1174 1272 1174 1272 1171 1271c-1.316-2.547-1.316-2.547-2.562-5.75l-1.254-3.172L1166 1259a1951 1951 0 0 0-2-5c4.14-2.83 8.313-5.596 12.598-8.203 18.037-10.99 34.22-24.278 50.402-37.797"/><path fill="#D68E91" d="m540 302.688 2.578.003c14.004.038 27.597.989 41.422 3.309q2.39.367 4.781.727c14.52 2.24 28.934 5.131 43.016 9.34 3.114.907 6.235 1.685 9.39 2.433 4.872 1.19 9.489 2.763 14.176 4.535 2.466.902 4.928 1.674 7.45 2.402 13.428 3.938 26.324 9.28 39.018 15.127a509 509 0 0 0 8.518 3.752c8.494 3.671 16.865 7.565 25.188 11.609 2.092 1.014 4.187 2.02 6.283 3.026 7.914 3.822 15.61 7.886 23.199 12.32a210 210 0 0 0 8.043 4.416c14.237 7.749 27.769 16.774 41.25 25.75l1.744 1.16c5.879 3.912 11.704 7.853 17.298 12.166 1.674 1.258 3.39 2.41 5.146 3.55L841 420v1c-5.227 1.394-9.178 1-15 1l-2 24c-22.553-1.208-44.708-3.272-67-7-.048-5.923-.056-11.784.5-17.687l.281-3.075L758 416l-2.387-.148c-7.954-.546-15.752-1.527-23.613-2.852l-.184 2.781c-.44 6.438-.921 12.828-1.816 19.219a472 472 0 0 1-5.812.125l-3.27.07c-3.963-.197-7.6-.838-11.486-1.589-7.662-1.353-15.404-2.237-23.12-3.231l-5.341-.695q-6.485-.844-12.971-1.68-.04-2.937-.062-5.875l-.036-3.305C668 416 668 416 669 414v-12l-25-5-.375 7.375c-.36 6.356-1.153 12.421-2.625 18.625-8.422-.61-16.729-1.782-25.062-3.102q-3.198-.502-6.397-.994c-11.336-1.766-11.336-1.766-15.873-2.963-4.684-1.202-9.385-1.885-14.168-2.566l-2.781-.406q-3.36-.49-6.719-.969c2.962-22.801 2.962-22.801 6-32l-1.984-.332c-6.249-1.086-12.355-2.453-18.485-4.082-2.585-.699-2.585-.699-5.531-.586q-1.226 5.498-2.437 11l-.698 3.121C545.63 394.742 544.6 400.275 544 406c-9.244-.46-18.118-1.77-27.17-3.584a980 980 0 0 0-6.357-1.244c-10.327-2.026-10.327-2.026-11.473-3.172a236 236 0 0 0-7-1c.979-7.712 2.774-14.884 5.171-22.25A126 126 0 0 0 501 360l-2.414-.586c-9.036-2.22-9.036-2.22-12.961-3.601-2.984-.924-5.52-.96-8.625-.813-3.273 6.867-5.148 14.13-7.187 21.438l-1.116 3.95Q467.342 385.193 466 390c-5.81-.642-11.426-1.645-17.125-2.937l-2.34-.514c-3.224-.722-6.34-1.483-9.473-2.545-4.244-1.392-8.564-2.24-12.937-3.129-.88-.182-1.758-.364-2.664-.55q-3.23-.668-6.461-1.325c1.756-5.861 3.837-11.05 7.063-16.25l1.186-1.935C436.165 340.143 454.039 322.138 477 313c1.988-.397 3.988-.752 6-1v-2c3.33-.806 6.665-1.592 10-2.375l2.773-.672c14.73-3.43 29.17-4.33 44.227-4.265"/><path fill="#F0DCC9" d="M1301 221c7.914 3.044 12.042 8.082 16.25 15.125l1.352 2.207c3.13 5.132 3.13 5.132 4.398 7.668 2.747-1.02 5.174-2.105 7.688-3.625C1333 241 1333 241 1335 241c1.385 1.965 1.385 1.965 2.977 4.723l1.773 3.052 1.875 3.287 1.9 3.306c1.836 3.205 3.658 6.417 5.475 9.632.48.845.96 1.69 1.456 2.56a575 575 0 0 1 3.482 6.252l1.902 3.458C1357 280 1357 280 1356 283a87 87 0 0 1-5.625 4.563l-1.75 1.32c-27.521 20.52-27.521 20.52-40.625 22.117v2c-12.465 3.309-24.868 6.006-37.603 8.025-16.34 2.606-32.417 5.643-48.397 9.975l-2.548.665c-27.213 7.158-53.194 19.567-76.452 35.335l-1.989 1.333c-7.662 5.14-15.14 10.34-22.19 16.304C1117 386 1117 386 1115 386v2a113 113 0 0 1-5.312 4.438c-3.853 3.014-3.853 3.014-7.418 6.347C1101 400 1101 400 1099 400v2c-1.645 1.586-1.645 1.586-3.812 3.375-2.25 1.86-4.092 3.494-5.825 5.852L1088 413h-2l-1 3h-2l-.695 1.672c-1.673 2.985-3.805 5.114-6.18 7.578-18.116 19.311-31.845 41.27-39.125 66.75l-32-1v-2l6-2c-.636-4.258-2.121-7.638-4-11.5-3.13-6.541-6.072-13.152-8.937-19.812l-1.217-2.805-1.123-2.621-1.008-2.345C994 446 994 446 994 444q-2.094.56-4.187 1.125l-3.004.809c-2.98.834-5.939 1.704-8.899 2.601l-2.755.822q-2.73.816-5.453 1.661c-11.437 3.387-11.437 3.387-16.702 1.982-2.335-1.926-3.634-4.171-5.062-6.812l-1.178-1.948c-1.712-2.913-2.76-4.814-2.76-8.24q2.467-.909 4.938-1.812l2.777-1.02c3.287-1.169 6.59-2.28 9.901-3.376 2.38-.79 4.755-1.592 7.13-2.397l4.692-1.582 2.427-.827 2.319-.779 2.08-.704C982 423 982 423 984 423l-.918-2.156a4014 4014 0 0 1-4.082-9.656l-1.445-3.393-1.367-3.252-1.27-3C974 399 974 399 974 396l2.57-1.155c18.823-8.474 37.509-17.168 56.066-26.214 3.315-1.607 6.638-3.195 9.966-4.776l3.151-1.497q2.877-1.364 5.755-2.72c4.955-2.354 9.716-4.851 14.395-7.718 2.585-1.134 4.301-1.28 7.097-.92 5.763 4.1 8.562 11.721 11.375 17.938l1.363 2.939A933 933 0 0 1 1089 379c6.532-1.988 12.572-4.547 18.688-7.57l2.73-1.335q2.852-1.395 5.699-2.8 4.267-2.1 8.543-4.186c9.505-4.655 18.95-9.39 28.24-14.462 4.892-2.647 4.892-2.647 7.1-2.647-3.073-9.094-7.06-17.536-11.373-26.098l-1.459-2.964-1.335-2.66C1145 312 1145 312 1146 309c2.414-1.88 5.14-3.267 7.813-4.75l2.197-1.285 2.135-1.2 1.948-1.1c2.437-.85 3.551-.698 5.907.335 1.277 1.575 1.277 1.575 2.367 3.613l1.237 2.268 1.271 2.432 1.322 2.458A712 712 0 0 1 1176 319l1.045 1.994c4.955 9.49 4.955 9.49 4.955 12.006q6.067-3.337 12.125-6.687l1.833-1.013c9.558-5.288 19.001-10.74 28.324-16.437l2.562-1.547 2.224-1.36C1231 305 1231 305 1234 305q-2.592-5.438-5.187-10.875l-1.463-3.07-1.455-3.047-1.447-3.046q-1.425-2.917-2.962-5.775l-1.412-2.632-1.282-2.305c-1.01-2.867-.792-4.398.208-7.25 1.427-1.426 1.427-1.426 3.238-2.527l1.987-1.21 2.088-1.2 2.052-1.284c4.914-2.906 4.914-2.906 7.881-2.384 6.427 5.883 10.37 15.588 14.254 23.293.35.694.7 1.39 1.062 2.105 2.438 4.95 2.438 4.95 2.438 7.207 6.687-3.599 13.112-7.522 19.5-11.625l2.875-1.838A4385 4385 0 0 0 1302 261c-1.682-5.978-4.6-11.234-7.5-16.687l-1.512-2.877c-1.89-3.58-3.74-7.065-5.988-10.436-.437-2.937-.437-2.937 0-6 3.866-4.74 8.306-4.836 14-4"/><path fill="#EED6C5" d="M566 432c13.772.585 27.118 3.12 40.635 5.692 9.518 1.807 19.05 3.482 28.611 5.043q3.577.588 7.152 1.19c8.374 1.382 16.602 2.442 25.088 2.86C670 447 670 447 671 448c2.543.422 5.074.79 7.629 1.121l2.37.318q3.78.504 7.563.998l4.928.659a2479 2479 0 0 0 23.092 2.974 769 769 0 0 1 15.126 2.02c11.49 1.65 23.01 2.84 34.566 3.908l3.742.354c1.106.1 2.212.202 3.352.307C776 461 776 461 778 462c1.417.202 2.84.354 4.266.48l2.67.243 2.884.25 2.951.264c3.118.28 6.236.552 9.354.825l6.332.565q7.77.693 15.543 1.373c.082 4.196-.16 7.905-1 12a335 335 0 0 0-.535 8.582l-.13 2.467q-.203 3.882-.398 7.764l-.275 5.279q-.335 6.453-.662 12.908c-5.073 2.069-10.158 4.08-15.312 5.938-22.478 8.117-43.721 18.19-64.55 29.883-2.676 1.476-5.389 2.845-8.138 4.179l-1.66-1.652C722.237 546.592 714.594 541.63 706 537l-2.164-1.175C658.57 511.716 607.438 504.475 557 501c1.608-17.768 3.61-35.361 6.508-52.973.867-5.337 1.678-10.682 2.492-16.027"/><path fill="#FEFDEE" d="M415.75 737.267c2.858.93 5.516 2.136 8.246 3.393l3.6 1.645 1.899.87c35.94 16.423 69.553 25.079 109.255 24.95l2.389-.003c11.312-.015 22.581-.199 33.861-1.122.086 4.56.008 7.858-2 12h-2l-.766 1.54a942 942 0 0 1-2.968 5.858C547.972 824.338 540.745 863.715 538 906l-2.504-.081-3.281-.064-3.254-.08c-4.52.344-5.883 1.997-8.961 5.225-3.698 2.588-6.505 3.576-11 4l-2.184.23c-10.603.628-19.622-4.169-27.507-10.957C470.814 895.91 466.277 885.914 462 875l-1.066-2.672c-1.967-5.358-2.59-10.647-2.934-16.328l-2.93.105c-13.816.288-23.255-2.199-33.757-11.48-10.708-12.155-15.36-23.2-14.54-39.397.881-8.663 4.783-16.54 10.188-23.263 1.262-1.971 1.262-1.971.875-4.512-.874-2.566-1.693-3.743-3.586-5.64-6.207-6.957-9.098-13.707-8.676-23.106.754-4.795 3.048-7.373 6.426-10.644 2-1.063 2-1.063 3.75-.796M1378 479c6.746.54 10.611 2.546 15.313 7.375 4.409 6.859 3.44 17.75 2.238 25.535-.457 2.044-.994 4.07-1.551 6.09l2.938.563c9.474 2.758 19.297 12.66 24.546 20.714 5.564 10.825 5.167 26.381 2.454 38.035-3.05 8.882-10.381 16.35-17.938 21.688-2.945 1.332-5.85 2.285-9 3l1.313 2.813c5.99 13.998 8.415 31.982 4.78 46.91A60 60 0 0 1 1399 660l-1.387 2.473c-4.629 7.596-11.802 15.085-20.613 17.527-5.503.473-10.848.424-16.273-.645L1358 679l-2 2c-2.71.024-4.379-.466-6.45-2.245a123 123 0 0 1-4.55-5.067c-3.462-3.967-6.812-7.458-11-10.688-3.261-2.93-5.149-5.853-7.25-9.687-4.986-8.616-12.067-15.38-18.983-22.448a89 89 0 0 1-4.49-5.138c-2.608-3.123-5.468-5.549-8.605-8.114C1293 616 1293 616 1292 613l-1.742-.871c-3.072-1.536-5.006-3.726-7.383-6.192-3.116-3.402-3.116-3.402-6.875-5.937v-2l-1.656-.66c-3.112-1.779-5.388-4.211-7.844-6.778-3.716-3.868-3.716-3.868-7.844-7.285L1257 582v-2l3.488-1.18c26.494-9.207 48.454-23.785 69.102-42.633 2.336-2.12 4.713-4.184 7.098-6.25 4.158-3.701 7.741-7.675 11.312-11.937l2.387-2.727c10-11.48 18.79-23.881 27.613-36.273"/><path fill="#EDD3C2" d="M477 354c8.465.143 16.114 3.184 24 6 .144 4.378.025 7.715-1.687 11.75-3.204 8.186-5.162 16.742-7.313 25.25l-3.113-.805C480.964 394.17 473.08 392.301 465 391l-.312 3.875c-.57 5.262-2.025 10.116-3.688 15.125l2.969.375c4.986.712 9.829 1.958 14.715 3.164 3.335.808 6.566 1.495 9.972 1.961 3.344.5 3.344.5 5.956 1.41 4.263 1.372 8.548 2.2 12.943 3.035l2.732.53q4.293.83 8.588 1.65l5.844 1.129q7.14 1.379 14.281 2.746c-.765 9.787-2.138 19.461-3.54 29.174-.956 6.757-1.728 13.478-2.245 20.282-.247 2.926-.677 5.783-1.215 8.669-.933 5.277-1.551 10.536-2 15.875l7 1v1l-1.835.18c-37.704 3.824-72.53 14-107.756 27.497-6.116 2.34-12.232 4.675-18.413 6.839l-2.748.962C404 538 404 538 401 537c-.655-3.582-1.297-7.166-1.937-10.75l-.553-3.02c-5.527-31.153-4.953-66.268 1.49-97.23l.567-2.838c6.667-32.678 6.667-32.678 14.433-44.162 8.936.784 18.252 2.068 26.777 4.934 4.629 1.531 9.352 2.585 14.098 3.691l2.953.695q3.584.844 7.172 1.68l.314-1.982c1.219-7.212 3.026-14.098 5.186-21.08l.934-3.124.91-2.974.818-2.676C475 356 475 356 477 354"/><path fill="#B65F62" d="m1267 223 3 2c.5 2.813.5 2.813 0 6-1.616 2.047-3 3.38-5 5l-1.926 1.633c-13.821 11.41-28.656 21.273-44.074 30.367.56 4.783 1.951 8.34 4.16 12.605l.938 1.836q1.472 2.879 2.965 5.747 1.495 2.885 2.975 5.778c.891 1.742 1.792 3.48 2.693 5.218C1234 302 1234 302 1234 305l-1.8.848c-5.754 2.782-11.085 5.933-16.442 9.41-3.422 2.162-6.938 4.084-10.508 5.988a490 490 0 0 0-7.875 4.352l-2.465 1.385q-2.448 1.38-4.893 2.766l-2.27 1.274-2.042 1.154C1184 333 1184 333 1182 333l-.915-1.86q-2.1-4.26-4.21-8.515l-1.437-2.926A224 224 0 0 0 1165 301c-3.2.54-5.753 1.2-8.55 2.848l-1.866 1.084-1.897 1.13-1.955 1.143c-1.58.925-3.157 1.86-4.732 2.795 1.327 4.215 2.92 8.146 4.82 12.133l1.621 3.441q1.69 3.566 3.391 7.125l1.613 3.434 1.485 3.121C1160 342 1160 342 1160 346c-44.657 23.07-44.657 23.07-59.625 30l-2.86 1.343-2.554 1.157-2.131.969C1091 380 1091 380 1088 379c-1.18-1.946-1.18-1.946-2.305-4.48l-1.27-2.78-1.3-2.928c-3.854-9.237-3.854-9.237-10.125-16.812-6.129.155-10.51 2.562-15.715 5.477q-2.538 1.377-5.081 2.747l-2.615 1.409c-4.042 2.135-8.152 4.117-12.28 6.078l-2.433 1.155a3588 3588 0 0 1-7.438 3.509l-5.246 2.478a6509 6509 0 0 1-12.836 6.04q-3.304 1.553-6.606 3.108c-3.6 1.696-7.206 3.38-10.812 5.062-1.027.481-2.053.963-3.11 1.46-4.892 2.263-9.59 4.191-14.828 5.477l.703 1.665 3.172 7.522 1.105 2.62q1.056 2.505 2.105 5.01a620 620 0 0 0 2.173 5.109C984 420 984 420 984 423l-9.437 3.313-2.663.935a753 753 0 0 1-14.875 5.06c-2.158.737-4.276 1.552-6.4 2.38C947 436 947 436 944 436c3.432 6.354 3.432 6.354 7.313 12.438C953 451 953 451 953 453c9.772-.92 18.737-3.592 28.04-6.612l2.898-.927 2.59-.85c2.582-.638 4.822-.722 7.472-.611l.791 1.842q1.85 4.299 3.709 8.596l1.359 3.15c2.128 4.902 4.284 9.777 6.621 14.584l1.133 2.33q1.053 2.142 2.137 4.267c2.313 4.703 2.313 4.703 1.957 7.688L1011 488l-6 1v2l-54 1v-1h5l-2-7c-5.612.923-11.098 1.97-16.562 3.563-5.125 1.462-10.129 2.103-15.438 2.437-1.74-4.075-2.983-8.227-4.125-12.5-.182-.651-.364-1.302-.55-1.973-.962-3.578-1.643-6.818-1.325-10.527 1.491-1.491 2.974-1.405 5.043-1.719l2.506-.386 2.639-.395 5.105-.781 2.447-.371c2.757-.425 5.51-.88 8.26-1.348-2.989-5.689-5.854-11.057-10-16v-2l-2.309.656c-6.447 1.739-12.019 2.678-18.691 2.344q-.504-2.187-1-4.375l-.562-2.46C909 436 909 436 909 434h-9v-1c7.217-1.026 14.38-1.313 21.662-1.518l2.733-.103 2.464-.076c2.436-.187 2.436-.187 5.141-2.303.5-2.457.5-2.457 0-5l-1.562-1.5L929 421c.5-5.4 3.42-9.39 6.184-13.918 1.574-2.672 2.843-5.33 4.129-8.144 1.33-2.358 2.087-3.684 4.612-4.755l2.31-.53c7.202-1.94 13.901-5.014 20.702-8.028l2.117-.931c11.888-5.233 23.604-10.772 35.278-16.467 6.99-3.404 14.044-6.662 21.106-9.914 16.829-7.773 33.336-16.087 49.7-24.792a4209 4209 0 0 1 8.056-4.268c14.126-7.47 28.161-15.063 42.044-22.98 6.352-3.62 12.743-7.166 19.137-10.71l6.86-3.81q4.994-2.773 9.994-5.539a1237 1237 0 0 0 43.706-25.361c3.04-1.837 6.093-3.649 9.15-5.455 11.258-6.683 21.758-13.811 32.028-21.921a274 274 0 0 1 9.074-6.79l2.981-2.175c3.274-1.748 5.172-1.973 8.832-1.512"/><path fill="#4D5672" d="M846 993c3.644 2.747 6.855 5.698 10 9l1.727 1.703c9.163 9.681 12.68 22.281 12.586 35.297l-.015 2.475c-.387 20.556-6.624 37.841-20.685 53.037-15.177 14.451-34.385 21.002-55.031 20.699-15.843-.527-29.522-8.15-40.582-19.211-14.262-17.066-18.259-35.343-17-57 2.013-17.625 12.115-32.523 25.32-43.902 24.801-19.414 57.56-18.666 83.68-2.098"/><path fill="#4D5671" d="M1225 916.438c12.034 10.158 19.08 22.39 23 37.562l.533 1.904c4.19 18.797-2.33 37.183-12.295 52.87-9.385 12.82-23.828 20.086-39.192 22.917-19.313 2.917-36.43-3.814-52.046-14.629-12.251-9.4-18.447-20.541-23-35.062l-.98-3.125c-1.784-6.563-2.292-12.86-2.332-19.625l-.017-2.364c.17-13.77 5.314-25.4 14.954-35.198 25.463-24.62 63.284-26.064 91.375-5.25"/><path fill="#B66063" d="M465.824 334.483c4.667 1.109 9.154 2.807 13.676 4.392 30.769 10.494 62.428 18.379 93.898 26.456q3.867.995 7.733 1.994a1364 1364 0 0 0 70.829 16.262c3.068.62 6.134 1.25 9.2 1.878a6982 6982 0 0 0 8.953 1.814c19.118 3.802 38.343 7.054 57.574 10.221l3.631.598c19.85 3.252 39.662 5.968 59.682 7.902l6.621.676q2.94.29 5.879.574l2.498.244c4.29.383 8.426.468 12.732.318 4.804-.031 7.322.773 11.082 3.938l2.727 2.207L835 416c1.215.833 2.442 1.65 3.687 2.437L841 420v1c-5.227 1.394-9.178 1-15 1l-2 24c-22.553-1.208-44.708-3.272-67-7-.048-5.923-.056-11.784.5-17.688l.281-3.074L758 416l-2.387-.148c-7.954-.546-15.752-1.527-23.613-2.852l-.184 2.781c-.44 6.438-.921 12.828-1.816 19.219a472 472 0 0 1-5.813.125l-3.269.07c-3.963-.197-7.6-.838-11.486-1.589-7.662-1.353-15.404-2.237-23.12-3.231l-5.341-.695q-6.485-.844-12.971-1.68-.039-2.937-.063-5.875l-.035-3.305C668 416 668 416 669 414v-12l-25-5-.375 7.375c-.36 6.356-1.153 12.421-2.625 18.625-8.422-.61-16.729-1.782-25.062-3.102q-3.198-.502-6.397-.994c-11.336-1.766-11.336-1.766-15.873-2.963-4.684-1.202-9.385-1.885-14.168-2.566l-2.781-.406q-3.36-.49-6.719-.969c2.962-22.801 2.962-22.801 6-32l-1.984-.332c-6.249-1.086-12.355-2.453-18.485-4.082-2.585-.699-2.585-.699-5.531-.586q-1.226 5.498-2.438 11l-.697 3.121C545.63 394.742 544.6 400.275 544 406c-9.244-.46-18.118-1.77-27.17-3.584a980 980 0 0 0-6.357-1.244c-10.327-2.026-10.327-2.026-11.473-3.172a236 236 0 0 0-7-1c.979-7.712 2.774-14.884 5.171-22.25A126 126 0 0 0 501 360l-2.155-.502c-7.889-1.899-15.547-4.241-23.22-6.873l-3.441-1.133c-6-2.053-10.778-3.849-15.184-8.492-.625-2.563-.625-2.563 0-5 2.574-3.912 4.34-4.292 8.824-3.517"/><path fill="#EFD8C6" d="M1054 360c5.19 9.697 9.139 19.72 13 30l1.788-.826a2659 2659 0 0 1 8.024-3.674l2.815-1.3 2.705-1.231 2.491-1.143C1087 381 1087 381 1090 381a915 915 0 0 1 4.063 8.75l1.181 2.5 1.104 2.422 1.031 2.222c.738 2.503.579 3.696-.379 6.106a141 141 0 0 1-5 5l-2.187 2.813L1088 413h-2l-1 3h-2l-.695 1.672c-1.673 2.985-3.805 5.114-6.18 7.578-18.116 19.311-31.845 41.27-39.125 66.75l-32-1v-2l6-2c-.636-4.258-2.121-7.638-4-11.5-3.13-6.541-6.072-13.152-8.937-19.812l-1.217-2.805-1.123-2.621-1.008-2.345C994 446 994 446 994 444q-2.094.56-4.187 1.125l-3.004.809c-2.98.834-5.939 1.704-8.899 2.601l-2.755.822q-2.73.815-5.453 1.661c-11.437 3.387-11.437 3.387-16.702 1.982-2.335-1.926-3.634-4.171-5.062-6.812l-1.178-1.948c-1.712-2.913-2.76-4.814-2.76-8.24q2.467-.909 4.938-1.812l2.777-1.02c3.287-1.169 6.59-2.28 9.901-3.376 2.38-.79 4.755-1.592 7.13-2.397l4.692-1.582 2.427-.827 2.319-.779 2.08-.704C982 423 982 423 984 423l-.918-2.156a4014 4014 0 0 1-4.082-9.656l-1.445-3.393-1.367-3.252-1.27-3C974 399 974 399 974 396l2.57-1.155c15.432-6.948 30.83-13.95 46.055-21.345l1.825-.886q4.27-2.074 8.538-4.15c4.038-1.963 8.08-3.915 12.137-5.839l3.32-1.586C1051 360 1051 360 1054 360"/><path fill="#D68E91" d="m1054 1218-.14 1.73c-.424 9.501 2.571 17.802 6.39 26.395 2.758 6.89 3.066 12.588.281 19.543-6.39 13.499-6.39 13.499-10.66 15.16-2.621.455-5.229.86-7.871 1.172l-2.457.293c-6.226.372-10.651-1.376-16.27-3.918A82.1 82.1 0 0 0 994 1272l-3.824-.156c-13.66-.386-26.568 1.453-39.489 5.906-7.376 2.454-13.051 2.627-20.687 1.25l-2.612-.447c-30.011-5.215-64.366-11.86-83.427-37.924C843 1239 843 1239 843 1237l2.156-.06c3.219-.095 6.438-.205 9.657-.315 1.12-.03 2.239-.062 3.392-.094l3.252-.117 3-.095c2.784-.157 2.784-.157 5.543-2.319.28-2.806.267-4.466-1-7l15-1v6c.91 2.012.91 2.012 3 3 2.581.26 4.894.337 7.469.262l2.278-.036c8.933-.184 17.843-.766 26.753-1.414l2.757-.196c30.745-2.215 61.444-5.154 91.93-9.741l2.467-.37c8.92-1.352 17.726-2.917 26.52-4.95C1050 1218 1050 1218 1054 1218"/><path fill="#4D5672" d="M1040 958c6.439 5.734 10.952 13.24 11.5 22-.48 7.688-4.101 14.632-9.36 20.133-9.424 8.22-21.487 11.953-33.14 15.867l-2.145.743c-20.73 7.113-48.06 12.24-68.855 3.257-2.28-1.186-3.97-2.376-6-4l-2.5-1.625c-5.735-5.448-9.53-12.493-9.812-20.437.16-9.785 4.673-17.992 11.312-24.938 14.177-13.569 31.962-18.14 50.75-21.25l3.193-.532c18.838-2.935 39.372-.962 55.057 10.782"/><path fill="#D58D90" d="M1248 1157c-3.128 14.597-12.266 25.945-23 36l-2.402 2.406c-9.505 9.49-19.838 17.598-30.598 25.594l-1.809 1.36c-7.357 5.52-14.999 10.545-22.816 15.39l-2.624 1.668-2.478 1.504-2.205 1.362c-2.068.716-2.068.716-4.246-.068-1.883-1.256-3.195-2.527-4.697-4.216-15.632-16.032-36.056-24.06-57.125-30 3.789-2.131 7.866-3.27 12.008-4.504l4.893-1.482 2.585-.78c35.107-7.89 35.107-7.89 65.514-24.234.167-3.083.167-3.083 0-6l-6-2v-1l3.293-.738c6.528-1.63 12.745-4.187 19.014-6.604l2.869-1.076 2.59-.993C1203 1158 1203 1158 1206 1159l-10 5c-.043 2-.04 4 0 6 1.12 1.335 1.12 1.335 4 1.25 2.94-.043 5.296-.57 8.063-1.55a330 330 0 0 1 10.312-3.384l2.797-.873q2.827-.88 5.656-1.75c5.267-1.65 10.243-3.506 15.2-5.943 1.972-.75 1.972-.75 5.972-.75"/><path fill="#B25E61" d="M974 397q1.939 4.342 3.875 8.688l1.105 2.474C984 419.433 984 419.433 984 423l-9.437 3.313-2.663.935a753 753 0 0 1-14.875 5.06c-2.158.737-4.276 1.552-6.4 2.38C947 436 947 436 944 436c3.432 6.354 3.432 6.354 7.313 12.438C953 451 953 451 953 453c9.772-.92 18.737-3.592 28.04-6.612l2.898-.927 2.59-.85c2.582-.638 4.822-.722 7.472-.611l.791 1.842q1.85 4.299 3.709 8.596l1.359 3.15c2.128 4.902 4.284 9.777 6.621 14.584l1.133 2.33q1.053 2.142 2.137 4.267c2.313 4.703 2.313 4.703 1.957 7.688L1011 488l-6 1v2l-54 1v-1h5l-2-7c-5.612.923-11.098 1.97-16.562 3.563-5.125 1.462-10.129 2.103-15.438 2.437-1.74-4.075-2.983-8.227-4.125-12.5-.182-.651-.364-1.302-.55-1.973-.962-3.578-1.643-6.818-1.325-10.527 1.491-1.491 2.974-1.405 5.043-1.719l2.506-.386 2.639-.395 5.105-.781 2.447-.371c2.757-.425 5.51-.88 8.26-1.348-2.989-5.689-5.854-11.057-10-16v-2l-2.309.656c-6.447 1.739-12.019 2.678-18.691 2.344q-.504-2.187-1-4.375l-.562-2.46C909 436 909 436 909 434h-9v-1c7.217-1.026 14.38-1.313 21.662-1.518l2.733-.103 2.464-.076c2.436-.187 2.436-.187 5.141-2.303.5-2.457.5-2.457 0-5l-1.562-1.5L929 421c.122-4.503 2.013-7.722 5-11 2.287-.728 4.523-1.04 6.898-1.387 3.817-.754 7.356-2.037 10.977-3.425l2.068-.792a442 442 0 0 0 15.8-6.513C972 397 972 397 974 397"/><path fill="#D78F92" d="M566 432c16.573.704 32.726 4.178 48.984 7.273 7.642 1.414 15.335 2.55 23.016 3.727-.562 14.099-2.201 28.011-4 42l-.432 3.367Q632.304 498.186 631 508c-4.278.902-7.534.96-11.812.11l-3.457-.648-3.731-.712c-18.216-3.286-36.547-4.549-55-5.75 1.608-17.768 3.61-35.361 6.508-52.973.867-5.337 1.678-10.682 2.492-16.027"/><path fill="#ECD3C2" d="M1236.246 258.395c6.427 5.883 10.37 15.588 14.254 23.293.35.694.7 1.39 1.062 2.105 2.438 4.95 2.438 4.95 2.438 7.207l3 1-3.035 1.238c-3.975 1.704-7.674 3.767-11.402 5.95l-1.928 1.115q-2.32 1.344-4.635 2.697c.534 4.967 2.098 8.428 4.563 12.75 3.437 6.059 3.437 6.059 3.437 8.25l3 1-1.978.456C1208.488 333.92 1174.26 345.806 1143 367l-1.989 1.333c-7.662 5.14-15.14 10.34-22.19 16.304C1117 386 1117 386 1115 386v2a113 113 0 0 1-5.312 4.438c-3.853 3.014-3.853 3.014-7.418 6.347C1101 400 1101 400 1099 400l-1 2c-1.34-3.123-2.67-6.248-4-9.375l-1.156-2.695-1.094-2.578-1.016-2.38C1090 383 1090 383 1090 381l-1.88.81q-4.215 1.816-8.432 3.627l-2.96 1.276-2.841 1.22-2.619 1.127A79 79 0 0 1 1066 391l-1.102-3.043c-2.918-7.97-6.036-15.72-9.699-23.383C1054 362 1054 362 1053 359a840 840 0 0 1 7.188-4l2.04-1.156c7.127-3.894 7.127-3.894 10.772-2.844 5.647 4.638 8.433 11.436 11.375 17.938l1.363 2.939A933 933 0 0 1 1089 379c6.532-1.988 12.572-4.547 18.688-7.57l2.73-1.335q2.852-1.395 5.699-2.8 4.267-2.1 8.543-4.186c9.505-4.655 18.95-9.39 28.24-14.462 4.892-2.647 4.892-2.647 7.1-2.647-3.073-9.094-7.06-17.536-11.373-26.098l-1.459-2.964-1.335-2.66C1145 312 1145 312 1146 309c2.414-1.88 5.14-3.267 7.813-4.75l2.197-1.285 2.135-1.2 1.948-1.1c2.437-.85 3.551-.698 5.907.335 1.277 1.575 1.277 1.575 2.367 3.613l1.237 2.268 1.271 2.432 1.322 2.458A712 712 0 0 1 1176 319l1.045 1.994c4.955 9.49 4.955 9.49 4.955 12.006q6.067-3.337 12.125-6.687l1.833-1.013c9.558-5.288 19.001-10.74 28.324-16.437l2.562-1.547 2.224-1.36C1231 305 1231 305 1234 305q-2.592-5.438-5.187-10.875l-1.463-3.07-1.455-3.047-1.447-3.046q-1.425-2.917-2.962-5.775l-1.412-2.632-1.282-2.305c-1.01-2.867-.792-4.398.208-7.25 1.427-1.426 1.427-1.426 3.238-2.527l1.987-1.21 2.088-1.2 2.052-1.284c4.914-2.906 4.914-2.906 7.881-2.384"/><path fill="#EDD3C2" d="M851 429c6.479 3.887 6.479 3.887 8 6-.312 1.75-.312 1.75-1 4-.425 4.713-.425 4.713 1.188 9 2.615 1.443 3.972.804 6.812 0 2.533-1.447 2.533-1.447 5.063-3.25C883.09 436.866 894.74 433.52 909 434q.504 2.187 1 4.375l.563 2.46C911 443 911 443 911 445l2.309-.402c6.222-1.065 12.41-1.97 18.691-2.598a1448 1448 0 0 1 4.438 6.75l1.275 1.922 1.22 1.875 1.127 1.714c1.021 1.89 1.504 3.643 1.94 5.739-8.249 2.525-16.446 3.939-25 5 .683 5.414 1.777 10.637 3.063 15.938l.564 2.36Q921.31 486.15 922 489c8.375-.527 16.053-2.35 24-5a65 65 0 0 1 4.188-.062L954 484c1.46 2.647 2 3.894 2 7-8.429 1.07-16.86 2.107-25.3 3.078-28.436 3.296-56.861 7.093-84.7 13.922-.977-20.231 2.416-39.93 9-59h-4z"/><path fill="#D68E91" d="m408 396 1 2c2.431.381 4.803.655 7.25.875 6.3.676 11.934 1.95 17.957 3.973 8.453 2.568 17.165 4.27 25.793 6.152-.633 10.32-1.733 20.346-4.375 30.36-1.734 6.856-3.074 13.772-4.36 20.723q-.589 3.17-1.19 6.337c-1.057 5.632-2.106 11.24-2.692 16.943C447 487 447 487 446 489c-7.759.284-15.1-.569-22.75-1.812l-3.455-.546c-8-1.288-15.905-2.793-23.795-4.642-.876-29.342 2.322-58.159 12-86"/><path fill="#D78F92" d="M487 416c4.147-.244 7.094.666 11 2 3.168.735 6.36 1.338 9.555 1.945l2.732.53q4.293.83 8.588 1.65l5.844 1.129q7.14 1.379 14.281 2.746c-.765 9.787-2.138 19.461-3.54 29.174-.956 6.757-1.728 13.478-2.245 20.282-.247 2.926-.677 5.783-1.215 8.669-.933 5.279-1.534 10.537-2 15.875-7.514.19-14.859-.454-22.332-1.227q-3.09-.316-6.18-.619c-10.096-1.023-10.096-1.023-13.488-2.154a245 245 0 0 0-7.687-.562l-2.127-.131q-2.593-.158-5.186-.307c-.239-5.742.649-10.791 1.938-16.375 1.244-5.451 2.235-10.776 2.789-16.34 1.071-8.962 3.467-17.829 5.418-26.63A465 465 0 0 0 487 416M665 448c9.333.605 18.55 1.653 27.813 2.938l7.914 1.078 3.794.517c5.573.748 11.155 1.42 16.74 2.072C724 455 724 455 727 456a274 274 0 0 1-.656 22.137l-.202 3.047q-.317 4.752-.642 9.503l-.434 6.499Q724.54 505.093 724 513c-13.855.187-27.66-.4-41.5-1l-6.863-.29q-8.32-.35-16.637-.71l.159-1.735c.902-9.867 1.802-19.734 2.657-29.605l.19-2.18q.376-4.317.747-8.634.28-3.249.563-6.498l.327-3.781c.354-3.541.828-7.048 1.357-10.567M755 460q5.188.21 10.375.438l2.984.119 2.852.127 2.634.11C776 461 776 461 778 462c1.417.202 2.84.354 4.266.48l2.67.243 2.884.25 2.951.264c3.118.28 6.236.552 9.354.825l6.332.565q7.77.693 15.543 1.373c.082 4.196-.16 7.905-1 12a335 335 0 0 0-.535 8.582l-.13 2.467q-.203 3.882-.398 7.764l-.275 5.279q-.335 6.453-.662 12.908c-2.375 1.063-2.375 1.063-5 2l-2-1c-1.91-.12-3.822-.177-5.735-.205l-3.64-.06-3.945-.051-4.027-.063q-5.303-.083-10.604-.153-5.409-.077-10.819-.161-10.614-.162-21.23-.307a402 402 0 0 1 .8-29.846c.14-2.18.27-4.36.401-6.54.387-6.25.848-12.42 1.799-18.614"/><path fill="#F19AA3" d="M1068.313 1019.625c4.649 2.658 7.406 6.058 10 10.75 2.057 7.857.235 12.786-3.555 19.793-6.168 9.937-16.439 15.671-27.688 18.363-10.255 1.566-19.868.723-29.886-1.875-11.9-2.453-22.276 2.785-32.684 7.907-14.01 6.85-27.194 9.67-42.492 5.496-5.731-2.017-11.674-4.725-16.008-9.059-.312-3.5-.312-3.5 0-7 3.757-2.505 6.653-2.747 11-2 2.646 1.118 5.108 2.392 7.605 3.809 9.015 4.485 19.305 2.183 28.395-.809 3.818-1.55 7.533-3.284 11.25-5.062 13.915-6.605 25.536-8.67 40.832-5.383 5.923.904 11.943.59 17.918.445l-.656-1.871c-3.086-9.385-3.474-16.996.656-26.129 5.705-9.17 15.592-11.74 25.313-7.375"/><path fill="#D78F92" d="M1144 310c3.956 4.943 6.393 10.637 9.125 16.313l1.668 3.38 1.59 3.295 1.45 2.986c1.292 3.35 1.784 6.466 2.167 10.026-44.657 23.07-44.657 23.07-59.625 30l-2.86 1.343-2.554 1.157-2.131.969C1091 380 1091 380 1088 379c-1.18-1.946-1.18-1.946-2.305-4.48l-1.27-2.78-1.3-2.928c-4.716-10.81-4.716-10.81-13.125-18.812l1.487-.728c12.616-6.192 25.016-12.709 37.316-19.506a4462 4462 0 0 1 8.925-4.914 12822 12822 0 0 0 11.91-6.55q2.75-1.512 5.499-3.029l3.21-1.768A93 93 0 0 0 1144 310"/><path fill="#ECC9C6" d="M1433.227 1530.86c2.233 1.436 3.526 2.792 4.773 5.14l.992 1.652c2.377 5.538 2.937 12.394 2.008 18.348-1.95 3.706-4.615 6.34-7.516 9.327-3.061 3.451-5.54 7.35-8.109 11.173l-1.687 2.489c-4.006 5.934-7.924 11.92-11.688 18.011-3.653-1.25-4.78-1.671-7-5a67 67 0 0 1-1.062-4.625c-.409-2.973-.409-2.973-1.938-5.375-5.605-.213-5.605-.213-11 1a100 100 0 0 1-5.875.25l-3.117.078c-4.203-.458-6.77-2.175-9.82-5.015-1.822-3.548-1.927-6.486-1.188-10.313 5.981-16.996 19.885-29.191 35.445-37.27 8.888-4.043 18.001-4.372 26.782.13"/><path fill="#EFD8C6" d="m1009 415 .887 2.14c10.432 25.144 10.432 25.144 21.718 49.91 1.301 2.752 2.514 5.526 3.707 8.325 1.25 3.665 1.25 3.665 3.688 4.625q-.213 2.438-.437 4.875l-.247 2.742C1038 490 1038 490 1037 492l-32-1v-2l6-2c-.636-4.258-2.121-7.638-4-11.5-3.13-6.541-6.072-13.152-8.937-19.812l-1.217-2.805-1.123-2.621-1.008-2.345C994 446 994 446 994 444q-2.094.56-4.187 1.125l-3.004.809c-2.98.834-5.939 1.704-8.899 2.601l-2.755.822q-2.73.815-5.453 1.661c-11.437 3.387-11.437 3.387-16.702 1.982-2.335-1.926-3.634-4.171-5.062-6.812l-1.178-1.948c-1.712-2.913-2.76-4.814-2.76-8.24q2.467-.909 4.938-1.812l2.777-1.02a350 350 0 0 1 7.384-2.531c4.883-1.624 9.746-3.305 14.608-4.992q4.134-1.427 8.27-2.853 2.85-.984 5.699-1.975c2.758-.96 5.52-1.91 8.281-2.86l2.57-.9c.791-.27 1.583-.54 2.398-.82l2.098-.726C1005 415 1005 415 1009 415"/><path fill="#ECC9C6" d="M816 1626c9.297 6.534 21.22 16.196 23.375 27.875.04 3.14-.58 5.034-2.437 7.563-5.62 4.902-11.682 4.93-18.813 5.187l-2.664.117c-2.153.094-4.307.177-6.461.258l-1 10a400 400 0 0 1-15.625-12.187 778 778 0 0 0-17.858-14.21A286 286 0 0 1 770 1647l-2.39-1.848c-2.4-3.208-1.924-5.6-1.61-9.527l.25-3.898c.956-4.752 2.71-8.095 6.531-11.153 14.266-7.36 30.16-2.695 43.219 5.426"/><path fill="#D7C9C9" d="M1207 1468h13c4.5 19.578 8.538 39.04 11 59l.313 2.484c3.201 28.139-.237 55.348-10.383 81.708-1.524 4.081-2.494 7.455-1.93 11.808 1.214 2.251 1.214 2.251 3 4.313 7.082 9.557 11.491 20.805 15.5 31.937l.774 2.13c1.332 3.854 1.726 6.443 1.726 10.62l-10 3c-3.106-5.93-5.53-11.902-7.812-18.187-4.382-14.176-4.382-14.176-13.188-24.813l-3 .125-3-.125c-2.137-3.205-2.253-4.262-1.609-7.94.706-2.387 1.735-4.382 2.91-6.576 2.835-5.562 4.886-11.245 6.824-17.171.346-1.05.692-2.1 1.05-3.18 2.57-7.967 4.607-15.838 5.825-24.133l.54-3.523c4.055-34.049-3.603-68.548-11.54-101.477"/><path fill="#D78F92" d="m1217 268 .783 1.572c1.235 2.464 2.482 4.921 3.73 7.378 1.354 2.666 2.7 5.335 4.047 8.004q1.067 2.113 2.141 4.222a1515 1515 0 0 1 3.088 6.11l.975 1.903c1.41 2.817 2.236 4.613 2.236 7.811l-1.8.848c-5.754 2.782-11.085 5.933-16.442 9.41-3.422 2.162-6.938 4.084-10.508 5.988a490 490 0 0 0-7.875 4.352l-2.465 1.385q-2.448 1.38-4.893 2.766l-2.27 1.274-2.042 1.154C1184 333 1184 333 1182 333l-.899-1.83q-2.076-4.211-4.164-8.42l-1.412-2.875c-3.546-7.142-7.433-14.032-11.525-20.875l1.866-1.031c12.814-7.094 25.538-14.31 38.134-21.781l1.81-1.072c5.915-3.13 5.915-3.13 11.19-7.116"/><path fill="#EDD4C3" d="M396 482c10.425 1.463 20.848 2.943 31.25 4.563l2.267.346c5.213.822 10.344 1.894 15.483 3.091q-.216 3.032-.437 6.063l-.247 3.41c-.317 3.533-.784 7.02-1.316 10.527 14.486 1.642 14.486 1.642 29 3-2.674 1.783-4.52 2.608-7.523 3.559l-2.802.903-3.05.976c-10.962 3.57-21.726 7.546-32.474 11.704-5.583 2.154-11.175 4.271-16.823 6.249l-2.893 1.016C404 538 404 538 401 537c-3.401-18.596-5.168-36.104-5-55"/><path fill="#AB9686" d="M1382 464c1.475 2.95 1.38 4.698 1 8-1.461 2.994-3.334 5.657-5.25 8.375l-1.64 2.386A589 589 0 0 1 1371 490l-1.553 2.17c-6.997 9.7-14.503 18.894-22.447 27.83l-1.466 1.658c-4.835 5.445-9.686 10.792-15.292 15.463a176 176 0 0 0-5.11 4.477c-17.355 15.62-45.36 37.75-69.82 38.902-3.312-.5-3.312-.5-5.312-1.562-1.603-3.107-1.428-5.518-1-8.938 2.923-2.828 5.87-3.678 9.75-4.687 19.33-5.709 36.896-17.536 52.25-30.313l1.778-1.466c12.301-10.175 23.315-20.977 33.222-33.534q1.415-1.733 2.836-3.46c6.351-7.766 12.202-15.748 17.789-24.08 6.88-10.159 6.88-10.159 15.375-8.46M420.266 725.7c4.006.322 6.013 1.152 9.484 3.112 11.3 6.04 23.313 10.583 35.25 15.188l2.615 1.015c14.611 5.531 29.913 7.375 45.385 8.985l3.151.33c12.733 1.119 25.545.68 38.311.499 3.152-.043 6.304-.066 9.456-.087l2.935-.056 2.714-.01 2.382-.03c2.596.448 3.463 1.288 5.051 3.354.5 2.438.5 2.438 0 5-9.1 8.854-25.412 6.206-37.312 6.188l-2.404-.003C497.002 769.082 463.4 759.97 427 743l-2.92-1.339-2.697-1.278-2.355-1.105c-2.362-1.489-3.606-2.882-5.028-5.278.305-5.083.771-7.795 6.266-8.3"/><path fill="#D79092" d="m576 380 1.764.429q9.248 2.246 18.5 4.478 3.433.83 6.865 1.664c14.236 3.46 28.476 6.697 42.871 9.429l-2 1a101 101 0 0 0-.5 7.438c-.29 6.358-1.03 12.356-2.5 18.562-8.422-.61-16.729-1.782-25.062-3.102q-3.198-.502-6.397-.994c-11.336-1.766-11.336-1.766-15.873-2.963-4.684-1.202-9.385-1.885-14.168-2.566l-2.781-.406q-3.36-.49-6.719-.969c.425-3.273.868-6.543 1.313-9.812l.357-2.756.38-2.764.334-2.491c.93-4.799 2.289-9.475 3.616-14.177"/><path fill="#D78F92" d="M1054 360c3.44 6.55 6.591 13.149 9.375 20l.795 1.922c1.318 3.308 1.83 5.448 1.83 9.078-14.437 6.295-28.914 12.463-43.562 18.25l-3.636 1.447-3.368 1.319-2.967 1.165C1010 414 1010 414 1007 414l-.794-1.864-3.581-8.386-1.25-2.934c-.4-.934-.8-1.869-1.21-2.832-.368-.858-.734-1.717-1.112-2.602-1.98-4.55-1.98-4.55-5.053-8.382l21.628-10.279q6.613-3.145 13.23-6.28 5.082-2.408 10.146-4.851l4.625-2.215 2.134-1.04c2.934-1.398 4.943-2.335 8.237-2.335"/><path fill="#AB9585" d="m689 588 .688 3.375c.918 3.785.918 3.785 3.937 5.063L696 597q-4.97 4.979-9.984 9.914l-4.298 4.258q-1.455 1.44-2.914 2.873c-5.982 5.878-11.603 11.909-16.828 18.479-1.98 2.48-4.029 4.886-6.101 7.288-16.586 20.32-29.538 43.517-41.867 66.567l-1.5 2.797a1207 1207 0 0 0-3.118 5.878l-1.585 2.973-1.415 2.676c-1.304 2.155-2.431 3.721-4.39 5.297-2.687.188-2.687.188-5 0v-2h-2c-1.066-4.547-1.001-7.014 1.035-11.21l1.433-2.988 1.595-3.177 1.632-3.32c14.635-29.297 32.676-58.644 55.004-82.793a281 281 0 0 0 5.57-6.297c3.743-4.288 7.696-8.328 11.731-12.34l2.04-2.05C686.885 588 686.885 588 689 588"/><path fill="#B66063" d="M851 429c6.479 3.887 6.479 3.887 8 6-.312 1.75-.312 1.75-1 4-.425 4.713-.425 4.713 1.188 9 2.62 1.446 3.962.808 6.812 0 2.738-1.51 2.738-1.51 5.438-3.375C881.53 438 881.53 438 885 438c1.151 4.605 1 7.94 1 13l-19 3-1.437 4.563-.81 2.566c-.848 3.232-1.28 6.563-1.753 9.871l27-1c3.369 8.983 3.369 8.983 4.125 14.188.542 3.628 1.143 7.217 1.875 10.812q-6.912.645-13.824 1.282-2.35.216-4.7.436-3.384.315-6.769.626l-2.11.199c-3.544.322-7.037.53-10.597.457v7l-12 3c-.701-20.336 2.37-39.798 9-59h-4z"/><path fill="#D79092" d="M501 360c10.452 2.542 20.814 5.385 31.183 8.244q3.265.9 6.532 1.795l1.995.552c3.411.936 6.811 1.767 10.29 2.409-.38 1.437-.38 1.437-.77 2.902-2.591 9.963-4.57 19.94-6.23 30.098-9.244-.46-18.118-1.77-27.17-3.584a980 980 0 0 0-6.357-1.244c-10.327-2.026-10.327-2.026-11.473-3.172a236 236 0 0 0-7-1c.979-7.712 2.774-14.884 5.171-22.25A126 126 0 0 0 501 360"/><path fill="#AB9585" d="M1056 495c29.27 2.87 57.618 14.825 84.688 25.75l2.292.92a345 345 0 0 1 29.199 13.39q2.57 1.324 5.15 2.632c2.959 1.507 5.91 3.03 8.859 4.558l2.978 1.523c9.379 4.865 9.379 4.865 12.834 8.227.938 3.063.938 3.063 1 6-2 3-2 3-4.86 3.59-6.05-.276-11.275-4.1-16.39-7.028-17.781-10.037-36.103-18.171-55.125-25.562l-3.03-1.183c-16.336-6.366-32.697-12.12-49.595-16.817l-2.644-.74A445 445 0 0 0 1059 507l2-3c.584-2.457.584-2.457 0-5-2.399-2.336-2.399-2.336-5-4"/><path fill="#D68F92" d="m1077 413 3 8-1.766 1.844c-14.392 15.388-27.813 33.16-36.113 52.617C1041 478 1041 478 1039 481c-3.312-2.208-3.748-3.144-5.234-6.7-.61-1.432-.61-1.432-1.23-2.894l-1.286-3.094q-1.334-3.145-2.672-6.289l-1.322-3.114c-2.164-5.013-4.515-9.93-6.881-14.85-1.338-2.977-2.401-5.947-3.375-9.059a423 423 0 0 1 20.995-8.333c4.663-1.731 9.264-3.587 13.857-5.495l3.66-1.517a1254 1254 0 0 0 7.26-3.048l3.396-1.412 3.04-1.28c2.787-.914 4.883-1.102 7.792-.915"/><path fill="#D78F92" d="m994 444 .791 1.842q1.85 4.299 3.709 8.596l1.359 3.15c2.128 4.902 4.284 9.777 6.621 14.584l1.133 2.33q1.053 2.142 2.137 4.267c1.256 2.554 2.231 4.694 2.332 7.563-1.753 2.703-4.026 2.863-7.082 3.668a113 113 0 0 1-8.242.195l-2.329-.008c-2.435-.011-4.87-.036-7.304-.062q-2.488-.016-4.977-.027-6.075-.035-12.148-.098l-.89-2.199c-3.49-8.515-7.4-16.772-11.444-25.035-.474-.977-.947-1.955-1.436-2.961l-1.3-2.657C954 455 954 455 954 453l1.816-.191c8.701-1.176 16.835-3.724 25.173-6.42l2.913-.928 2.61-.85c2.588-.636 4.833-.722 7.488-.611M758 416l2.69.335c21.754 2.682 43.417 4.58 65.31 5.665l-2 24c-22.553-1.208-44.708-3.272-67-7-.137-7.728.248-15.309 1-23M670 402c11.125 1.275 22.112 2.984 33.125 5 10.27 1.87 20.526 3.608 30.875 5l-2 1c-.435 3.005-.435 3.005-.562 6.563-.298 5.192-.717 10.288-1.438 15.437a472 472 0 0 1-5.812.125l-3.27.07c-3.963-.197-7.6-.838-11.486-1.589-7.662-1.353-15.404-2.237-23.12-3.231l-5.341-.695q-6.485-.844-12.971-1.68-.04-2.937-.062-5.875l-.036-3.305C668 416 668 416 669 414c.229-2.037.41-4.08.563-6.125z"/><path fill="#F8F8FA" d="M827.004 1007.164c5.966 3.468 10.215 7.447 12.996 13.836 1.074 6.544-.085 11.511-3.574 17.094-1.87 2.499-3.812 4.207-6.426 5.906l-2.562 1.688c-5.214 2.807-10.63 2.806-16.438 2.312-6.461-2.046-11.302-5.227-14.875-11.062-2.048-5.606-2.207-12.312-.504-18.02 5.991-11.796 19.062-16.529 31.383-11.754"/><path fill="#EED6C4" d="M752 515q11.682-.07 23.365-.104 5.425-.014 10.85-.047 5.232-.032 10.464-.039 2.973-.01 5.946-.037h3.64l3.217-.014C812 515 812 515 814 517c-.742.27-1.485.54-2.25.82-25.168 9.22-49.206 19.86-72.611 33-2.677 1.477-5.39 2.846-8.139 4.18l-1.66-1.652C720.649 545.08 710.747 539.24 700 534c3.039-.9 5.609-1.074 8.769-.93l2.85.122 3.053.148 3.144.139c3.312.147 6.623.303 9.934.458l6.738.303q8.256.371 16.512.76l-.035-3.867-.028-5.008-.025-2.55-.01-2.442-.016-2.254C751 517 751 517 752 515"/><path fill="#F9F9FA" d="M1177.75 928.125c6.543 3.775 11.082 7.351 13.25 14.875 1.2 7.225-.84 13.056-5 19-5.449 5.21-10.713 6.364-18.012 6.277-6.062-.562-11.819-2.493-15.926-7.152-3.784-5.735-6.057-10.104-5.062-17.125 2.16-6.596 5.554-11.837 11.625-15.375 6.242-2.82 12.681-2.433 19.125-.5"/><path fill="#EDD3C3" d="m903.813 433.938 2.957.027L909 434c.182.8.364 1.598.55 2.422 1.521 6.642 3.116 13.247 4.9 19.824.595 2.98.644 5.722.55 8.754q-4.341 1.009-8.687 2l-2.475.578c-4.01.91-7.695 1.692-11.838 1.422l-1 3-1-2-3.375.5c-7.83.895-15.758.576-23.625.5-.101-4.322.014-8.144 1.188-12.312l.667-2.551C866 454 866 454 868.125 452.747c3.554-.923 7.037-1.204 10.688-1.372l2.1-.117c1.695-.094 3.39-.177 5.087-.258l-1-13 3.688-1.437 2.074-.81c4.399-1.48 8.42-1.871 13.05-1.815"/><path fill="#D68F92" d="M974 397q1.939 4.342 3.875 8.688l1.105 2.474C984 419.433 984 419.433 984 423l-9.437 3.313-2.663.935a753 753 0 0 1-14.875 5.06c-2.158.737-4.276 1.552-6.4 2.38C947 436 947 436 944 436l-1 2-.978-1.437q-2.195-3.221-4.397-6.438l-1.54-2.262-1.483-2.168-1.365-2c-1.267-1.829-1.267-1.829-3.237-3.695.277-4.255 1.117-6.867 4-10 1.918-.617 1.918-.617 4.188-.875 10.94-1.805 21.443-6.862 31.554-11.242C972 397 972 397 974 397"/><path fill="#EED6C4" d="M445 490c22.841 1.42 22.841 1.42 28 4 3.537.285 7.074.447 10.617.621 3.307.225 6.497.729 9.758 1.32 5.121.891 10.206 1.432 15.383 1.84l2.31.183q4.742.367 9.487.713c2.339.173 4.677.357 7.015.542l2.175.148c5.028.406 5.028.406 7.255 2.633l-1.835.18c-19.105 1.938-38.03 5.037-56.606 9.984-11.786 2.769-23.896.057-35.559-2.164.964-13.633.964-13.633 2-20"/><path fill="#D68F91" d="M397 503c8.147.438 16.175 1.36 24.25 2.5l2.852.396 5.063.731C431 507 431 507 432 508c1.679.393 3.369.74 5.063 1.063l2.785.535L442 510q-.214 2.625-.437 5.25l-.247 2.953L441 521l-.169 2.02C440 525 440 525 437.583 526.324l-3.2 1.149-3.531 1.287-3.727 1.303-3.61 1.314c-7.092 2.55-14.208 4.776-21.515 6.623a134 134 0 0 1-3.625-15.25l-.4-2.238c-.988-5.867-1.322-11.562-.975-17.512"/><path fill="#D48E91" d="m1315 284 1.023 2.703 1.352 3.547 1.336 3.516c1.176 3.11 1.176 3.11 2.453 5.468C1322 301 1322 301 1322 304l2 1c-10.374 5.556-10.374 5.556-16 6v2c-28.727 7.388-28.727 7.388-39 7-1.302-2.144-2.057-3.437-1.8-5.971 1.048-2.658 2.206-3.287 4.648-4.736l2.49-1.507 2.725-1.599q2.856-1.716 5.71-3.437l3.054-1.828c3.303-2 6.573-4.047 9.837-6.11l3.297-2.082q3.198-2.025 6.393-4.055l2.939-1.85 2.61-1.654C1313 284 1313 284 1315 284"/><path fill="#ECD3C2" d="M1346 261c2.908 3.598 5.06 7.508 7.25 11.563l1.14 2.037c.95 1.759 1.789 3.577 2.61 5.4-1.271 3.814-3.522 5.249-6.625 7.563l-1.733 1.306c-4.46 3.325-8.99 6.55-13.58 9.693l-1.86 1.302c-3.718 2.495-6.734 3.747-11.202 4.136a3164 3164 0 0 1-3.5-8.875l-1.012-2.55-.957-2.442-.888-2.254C1315 286 1315 286 1315 284l-2-1 3.258-1.484c5.946-2.972 11.222-6.91 16.617-10.766q3.085-2.202 6.18-4.39l2.734-1.955C1344 263 1344 263 1346 263z"/><path fill="#EDD3C2" d="M550 374c8.82.889 17.484 3.632 26 6-.863 6.29-1.883 12.551-2.937 18.813l-.514 3.177-.514 3.03-.457 2.753C571 410 571 410 569 412c-1.888-.124-1.888-.124-4.184-.645l-2.547-.551-2.707-.616C552.38 408.64 545.36 407.338 538 407v-1h6l-.152-3.254c0-5.724 1.322-11.128 2.59-16.683l.697-3.19c1.721-7.73 1.721-7.73 2.865-8.873"/><path fill="#D79092" d="m862 468 1 3 27-1c3.369 8.983 3.369 8.983 4.125 14.188.542 3.628 1.143 7.217 1.875 10.812q-6.94.645-13.88 1.282l-4.72.436q-3.395.315-6.79.626l-2.125.199c-3.186.29-6.282.457-9.485.457-.205-7.039.359-13.684 1.5-20.625l.434-2.754q.523-3.312 1.066-6.621"/><path fill="#D7C9C9" d="m1413 1472 2 2-2 2c.26 2.343.6 4.677 1 7v4c-1.519 1.333-1.519 1.333-3.672 2.523l-2.424 1.384-2.654 1.468c-7.51 4.32-14.74 8.87-21.812 13.875l-2.537 1.787c-3.5 2.483-6.97 4.988-10.354 7.627-7.493 5.794-7.493 5.794-11.61 5.961C1356 1521 1356 1521 1354 1519c.112-3.87.324-6.207 2.871-9.195l2.566-1.93c1-.76 2.001-1.519 3.032-2.3l1.703-1.242a429 429 0 0 0 5.86-4.376c9.428-7.04 19.184-13.28 29.347-19.203 4.667-2.734 9.154-5.706 13.621-8.754"/><path fill="#EDD2C2" d="M1301 221c7.864 3.025 11.97 7.987 16.125 15q1.283 2.126 2.57 4.25l1.2 1.984A62 62 0 0 0 1325 248l-3.25 1.5c-10.251 4.787-10.251 4.787-17.75 12.5l-2-1-.781-2.395c-1.708-5.052-4.219-9.592-6.719-14.293l-1.512-2.876c-1.89-3.58-3.74-7.065-5.988-10.436-.437-2.937-.437-2.937 0-6 3.866-4.74 8.306-4.836 14-4"/><path fill="#D78F92" d="M942 459c2.3 2.857 3.841 5.608 5.262 8.984l1.2 2.832 1.226 2.934A1972.126 1972.126 0 0 1 954 484l-2.212.383c-4.86.858-9.626 1.73-14.351 3.18-5.125 1.462-10.129 2.103-15.438 2.437-1.74-4.075-2.983-8.227-4.125-12.5-.182-.651-.364-1.302-.55-1.973-.962-3.578-1.643-6.818-1.325-10.527 1.493-1.493 2.97-1.387 5.043-1.684l2.506-.373 5.219-.75c4.604-.687 8.852-1.537 13.232-3.193"/><path fill="#D7C9C9" d="m1223.688 1307.625 3.857-.074c8.75-.027 20.123.223 27.321 5.928 1.134 1.521 1.134 1.521 1.509 4.021-.375 2.5-.375 2.5-1.437 4.313-4.185 2.564-8.877 1.241-13.399.19-6.042-1.229-11.95-1.385-18.101-1.378l-3.443-.004c-8.282.103-15.772 1.18-23.702 3.504-2.957.786-5.26 1.06-8.293.875l1.688-.687c3.554-2.018 6.665-4.34 7.98-8.348l.582-2.152c.68-1.965.68-1.965 1.75-3.813 7.731-2.544 15.614-2.367 23.688-2.375"/><path fill="#EDD3C2" d="M644 397c22.538 1.538 22.538 1.538 26 5 .099 1.977.13 3.958.125 5.938l.008 3.277C670 414 670 414 669 416c-.229 2.037-.41 4.08-.562 6.125l-.254 3.32L668 428c-18.34-3.191-18.34-3.191-27-5l.184-1.73c.636-6.156 1.123-12.31 1.535-18.485C643 400 643 400 644 397"/><path fill="#EDD4C3" d="m700 533 3.738.184c21.077.977 42.17 1.367 63.262 1.816-2.607 2.036-5.184 3.724-8.125 5.234l-2.376 1.231L754 542.75c-7.467 3.879-14.791 7.905-22 12.25l-2.562-2.375c-8.78-7.513-18.9-13.914-29.438-18.625z"/><path fill="#EDD2C1" d="M732 413c8.76.545 17.346 1.541 26 3q.04 2.656.063 5.313l.035 2.988c-.13 4.911-.653 9.806-1.098 14.699l-31-3 4-1 .184-3.543.254-4.644.119-2.33c.218-3.916.53-7.654 1.443-11.483"/><path fill="#F3E6D0" d="M824 447c10.447-.375 20.645.787 31 2-1.095 5.056-2.237 10.077-3.625 15.063-.26.94-.52 1.879-.79 2.847-.192.69-.386 1.38-.585 2.09-23.714.288-23.714.288-27.844-2.04-1.9-3.222-.968-6.49-.406-10.022l.305-2.221c.768-5.363.768-5.363 1.945-7.717"/><path fill="#D6C9C9" d="m781 1563 1 2c2.015.745 2.015.745 4.45 1.332 5.463 1.55 10.322 3.764 15.362 6.355l2.609 1.336A858 858 0 0 1 812 1578l2.18 1.133a207 207 0 0 1 5.57 3.054l3.11 1.731c2.14 2.082 2.14 2.082 2.593 5.695C825 1593 825 1593 823 1595c-7.067 1.148-12.032-2.262-18.062-5.625a2158 2158 0 0 0-6.168-3.305l-3.002-1.608c-8.586-4.535-15.9-8.12-25.768-7.462l-2-2 3.813-.312c2.388-.32 3.957-.558 6.062-1.75 1.816-3.129 2.373-6.41 3.125-9.938"/><path fill="#F3E6D0" d="M641 423c3.92.417 7.835.862 11.75 1.313l3.367.357 3.242.38 2.984.334c2.891.67 4.442 1.679 6.657 3.616l-1 1a275 275 0 0 0-1.062 8.563l-.276 2.443q-.335 2.996-.662 5.994c-6.544.312-12.628-.27-19.062-1.375l-2.31-.382c-1.891-.342-3.763-.785-5.628-1.243-1.257-2.513-.9-3.604-.441-6.352l.42-2.578.458-2.695.448-2.719q.55-3.33 1.115-6.656M445 490c6.734.419 13.437.972 20.125 1.875l3.195.43c2.826.733 3.893 1.44 5.68 3.695l-.875 2.313c-1.474 4.83-2.293 9.712-3.125 14.687-6.397.154-12.277-.352-18.562-1.5l-2.479-.434q-2.981-.524-5.959-1.066c.964-13.633.964-13.633 2-20M543 407c6.46.39 12.775 1.215 19.125 2.438l3.883.746L569 411c1.685 3.37.292 6.98-.375 10.563l-.422 2.404c-1.068 5.898-1.068 5.898-2.203 7.033-20.633-.455-20.633-.455-25.692-4.28C539 425 539 425 539.027 423.008l.555-2.237.576-2.432.654-2.526.62-2.56c.507-2.088 1.035-4.17 1.568-6.252M730 436c22.827 1.414 22.827 1.414 26 3 .13 6.742-.202 13.304-1 20-8.846.31-18.556-.185-27-3q.21-4.157.438-8.312l.119-2.381.127-2.295.11-2.11C729 439 729 439 730 436M465 391c8.405.497 16.953 1.438 25 4 2 3 2 3 1.907 4.885l-.481 2.092-.526 2.28-.587 2.368-.53 2.39c-.545 2.274-.545 2.274-1.783 5.985-3.566 1.189-4.948.717-8.543-.215l-3.252-.83-3.392-.892-3.428-.881q-4.196-1.08-8.385-2.182c1.26-6.352 2.574-12.683 4-19"/><path fill="#F3E5CF" d="M911 446c2.43 6.328 3.59 12.238 4 19q-4.278 1.013-8.562 2l-2.424.578c-4.797 1.097-9.094 1.633-14.014 1.422a571 571 0 0 1-1.5-5.562l-.844-3.13c-.697-3.514-.764-6.734-.656-10.308 3.06-.675 6.124-1.339 9.188-2l2.619-.578 2.548-.547 2.333-.508c2.473-.393 4.813-.429 7.312-.367"/><path fill="#D7C9C9" d="m862 1340 2 1-2 2.125c-2.319 3.333-2.53 4.901-2 8.875 2.36 2.36 3.779 2.491 7 3l-1.703.664c-7.928 4.611-13.923 15.468-18.8 23.035C845 1381 845 1381 844 1382c-3.437.25-3.437.25-7 0-2-3-2-3-1.863-6.309 2.16-9.235 10.21-17.304 16.238-24.441l1.55-1.844c3.706-4.283 3.706-4.283 7.075-5.406 1.209-2 1.209-2 2-4"/><path fill="#D4C7C7" d="m892 1465 2.508.402c11.467 1.697 22.914 2.208 34.492 2.598-1.623 4.74-3.442 8.427-7 12-6.09 1.472-11.834.763-18 0l-2.85-.315a355 355 0 0 1-13.994-1.833l-2.287-.35C883 1477 883 1477 881 1475l1.898-.148 2.477-.227c.812-.07 1.624-.14 2.46-.21 2.368-.244 2.368-.244 4.165-2.415.167-3.583.167-3.583 0-7"/><path fill="#D38D90" d="M1346 261c2.908 3.598 5.06 7.508 7.25 11.563l1.14 2.037c.95 1.759 1.789 3.577 2.61 5.4-1.312 3.935-3.334 5.127-6.562 7.688l-3.067 2.449L1345 292c-3.085-3.085-4.381-6.979-6.125-10.937l-1.129-2.499-1.066-2.404-.977-2.199C1335 272 1335 272 1335 269c1.898-1.605 1.898-1.605 4.375-3.187l2.46-1.606C1344 263 1344 263 1346 263z"/><path fill="#EDCAC8" d="M1451 1502c1.691 1.219 1.691 1.219 3 3 .761 4.822.507 9.51-1.062 14.125-1.938 1.875-1.938 1.875-5.188 3.063-4.528-.227-6.185-1.343-9.355-4.442-2.119-2.652-2.607-4.36-2.395-7.746 3.797-7.171 6.854-10.074 15-8"/><path fill="#EDCAC7" d="M759 1596c2.706 1.823 4.537 3.075 6 6 .505 3.103.462 5.176-1.094 7.95-2.668 3.497-4.125 4.888-8.531 5.8-3.375-.75-3.375-.75-5.75-3.062-2.64-4.366-3.507-8.641-2.625-13.688 3.64-4.521 6.597-4.544 12-3"/><path fill="#D4C7C7" d="m966 1661 .77 1.766c1.363 2.476 2.872 4.04 4.918 5.984 5.665 5.532 11.428 11.29 15.312 18.25l-1 3-.953-1.46c-3.105-4.926-3.105-4.926-8.047-7.54-3.156.15-3.156.15-6 1l-1 2c-3.288-.26-4.17-1.178-6.508-3.617a238 238 0 0 1-2.617-3.258l-1.34-1.645c-1.967-2.43-3.8-4.876-5.535-7.48l1-3 3 2c3.09.082 3.09.082 6-1 1.453-2.463 1.453-2.463 2-5"/><path fill="#D5C7C7" d="M1142 1422c2 2 2 2 2.625 4.813-.625 3.187-.625 3.187-2.027 4.515-5.492 3.55-11.61 6.085-17.598 8.672l-1.062-2.875c-1.71-3.468-1.71-3.468-5.626-4.5L1115 1432c3.452-2.833 7.243-4.772 11.25-6.687l1.91-.971c4.821-2.303 8.499-2.83 13.84-2.342"/><path fill="#D7C9C9" d="M1036 1330c9.893 2.893 9.893 2.893 13 6-.295 3.832-1.234 5.455-4 8-1.176 2.1-1.176 2.1-2 4l-1.937-1.25c-3.24-1.852-6.528-3.275-9.977-4.687-2.201-1.122-3.548-2.136-5.086-4.063-.375-3.062-.375-3.062 0-6 3.56-2.374 5.892-2.62 10-2"/><path fill="#D7CACA" d="M1114 1388c2 2 2 2 2.438 4.375-.438 2.625-.438 2.625-2.54 4.586-3.126 2.2-6.22 3.738-9.71 5.289l-3.52 1.578L1098 1405a590 590 0 0 1-1.937-3.75l-1.09-2.11c-.929-2.042-1.505-3.951-1.973-6.14a409 409 0 0 1 6.563-3.062l1.845-.893c4.592-2.065 7.732-2.289 12.592-1.045"/><path fill="#B16062" d="m1206 1159-10 5v6l6 2v1l-2.457.734c-6.541 1.98-12.952 4.095-19.3 6.63C1178 1181 1178 1181 1175 1180l2-1.125c2.353-1.784 2.353-1.784 2.25-5.062L1179 1171l-6-2v-1l3.293-.738c6.528-1.63 12.745-4.187 19.014-6.604l2.869-1.076 2.59-.993C1203 1158 1203 1158 1206 1159"/><path fill="#F1E4CE" d="M1183 334c3.047 5.362 3.047 5.362 2.85 8.056-1.156 2.645-2.401 3.105-4.998 4.303l-2.547 1.192-2.68 1.199-2.656 1.246C1166.442 353 1166.442 353 1163 353l-2-8a268 268 0 0 1 13.813-8.312l2.769-1.551C1180 334 1180 334 1183 334"/><path fill="#D18E90" d="M911.848 431.617c10.702-.741 10.702-.741 14.742 2.39 1.733 2.262 3.154 4.44 4.41 6.993-6.195 4.13-12.785 4.3-20 4q-.504-2.187-1-4.375l-.562-2.46C909 436 909 436 909 434h-9v-1c3.937-.656 7.877-.988 11.848-1.383"/><path fill="#EDCBC8" d="M783.438 1595c3.912 1.098 5.854 1.973 8.562 5 1.125 3.438 1.125 3.438 1 7-2.062 3-2.062 3-5 5-4.867.101-7.527-1.726-11-5-1.42-2.84-1.315-4.855-1-8 2.245-3.502 3.246-4 7.438-4"/><path fill="#EDCAC7" d="M1422 1506c1.875 1.063 1.875 1.063 3 3 .678 4.49.321 6.474-2.062 10.375-3.486 3.114-5.286 3.794-9.938 3.625-2.437-1.5-2.437-1.5-4-4-.687-3.375-.687-3.375 0-7 3.423-4.483 7.21-7.184 13-6"/><path fill="#B36063" d="m884 1226-.187 2.813c-.101 3.112-.101 3.112 1.437 4.937 1.84 1.314 3.72 2.26 5.75 3.25-6.319 1.672-12.163 2.29-18.687 2.188l-2.615-.02c-7.26-.086-14.468-.498-21.698-1.168v-1l1.697-.06c2.539-.095 5.077-.205 7.615-.315.882-.03 1.763-.062 2.67-.094l2.569-.117 2.364-.095c2.387-.215 2.387-.215 5.085-2.319.28-2.806.267-4.466-1-7 5.025-.625 9.925-1.13 15-1"/><path fill="#D5C8C8" d="M1018.75 1368.441c4.845 1.203 9.546 2.898 14.25 4.559l-2.375 1.5c-3.525 3.357-3.758 5.773-4.625 10.5-11.851-4.326-11.851-4.326-15-8-.5-3.625-.5-3.625 0-7 3.21-2.14 4.101-2.196 7.75-1.559"/><path fill="#E9C9BB" d="M950.188 483.938 954 484c1.46 2.647 2 3.894 2 7-11.324 1.59-22.577 2.498-34 3-1.746-3.216-2.204-5.32-2-9l2 4c9.543-.6 18.878-5.215 28.188-5.062"/><path fill="#F1E4CE" d="M1037 481c1.899 1.899 1.124 4.572 1.133 7.09C1038 490 1038 490 1037 492l-23-1-1-4c3.059-1.012 6.122-2.007 9.188-3l2.619-.867 2.548-.82 2.333-.762c2.53-.603 4.72-.716 7.312-.551"/><path fill="#E9C9BB" d="M896 495v3q-7.635 1.5-15.271 2.99l-5.197 1.02q-3.73.731-7.462 1.459l-2.355.464C860.228 505 860.228 505 858 505v-7c12.617-1.843 25.223-3.26 38-3"/><path fill="#EBC8C5" d="M750.313 1616.625C754 1617 754 1617 756.438 1619c2.005 3.85 2.162 6.745 1.562 11-1 3-1 3-2 5-5.117-3.198-9.527-6.958-14-11 4.586-6.953 4.586-6.953 8.313-7.375"/><path fill="#ECC9C6" d="M1454.563 1521.938C1458 1523 1458 1523 1461 1528l-9 13c-3-1-3-1-4.164-2.75-1.496-4.025-1.39-8.027-.836-12.25 2.192-3.77 3.206-3.986 7.563-4.062"/><path fill="#D59092" d="M885 438c1.102 4.41 1.077 8.484 1 13q-3.624.505-7.25 1c-.682.095-1.364.19-2.066.29-3.278.445-6.368.71-9.684.71.255-3.445 1.213-4.19 3.875-6.562L874 444l1.5-1.625c2.613-2.395 5.908-4.375 9.5-4.375M700 533l24 1v14l-4.687-3.062c-6.267-3.999-12.73-7.495-19.313-10.938z"/><path fill="#EDCBC9" d="M1396.563 1515.438c3.263.753 4.472 1.87 6.437 4.562.625 2.438.625 2.438 0 5-2.76 2.89-4.73 4.734-8.687 5.563-2.313-.563-2.313-.563-4.126-2.25-1.453-2.83-1.799-4.176-1.187-7.313 2.325-2.989 3.811-4.74 7.563-5.562"/><path fill="#EDCAC7" d="M810 1603c1.938 1.125 1.938 1.125 3 3 .313 3.563.313 3.563 0 7-2 2-2 2-5.375 2.375-3.625-.375-3.625-.375-6.062-2-2.011-3.056-2.098-4.781-1.563-8.375 2.348-4.281 5.792-3.052 10-2"/><path fill="#D48E90" d="M851 429c6.792 4.075 6.792 4.075 8 6-.363 3.355-.363 3.355-1.312 7.188l-.926 3.855L856 449h-5z"/><path fill="#E8CFBE" d="M1093 407a159 159 0 0 1-5 6h-2l-1 3h-2l-2 4h-2l-.812-3.437L1077 413l-3-1q3.9-1.547 7.813-3.062l2.236-.893c5.611-2.158 5.611-2.158 8.951-1.045"/><path fill="#F1E2CC" d="M922 491v4l-26 3 1-4q4.56-.758 9.125-1.5l2.594-.434c4.478-.723 8.727-1.245 13.281-1.066"/><path fill="#CED0D8" d="M1174 927v1l-2.012.113c-6.072.452-10.321.886-14.547 5.64a142 142 0 0 0-3.109 3.821L1153 939h-2l-2 16c-2.493-3.739-2.51-6.673-2-11 2.16-6.596 5.554-11.837 11.625-15.375 4.976-2.307 10.005-1.98 15.375-1.625"/><path fill="#D79395" d="M751 535h16c-3.41 2.558-6.451 4.33-10.25 6.188l-3.266 1.605L751 544z"/><path fill="#DFC7B7" d="M1266 313c1.945 2.918 2.453 4.625 3 8q-2.593.507-5.187 1l-2.918.563c-2.688.406-5.183.516-7.895.437 3.718-4.202 8.317-6.998 13-10"/><path fill="#E6BFB4" d="M1301 221c3.063 1 3.063 1 5 2-3 1-3 1-6.875.813-3.222-.036-4.125.187-7.062 1.875-2.252 2.524-2.786 3.982-3.063 7.312-2-2-2-2-2.437-4.875.437-3.125.437-3.125 2.374-5.5 4.13-2.192 7.477-2.205 12.063-1.625"/><path fill="#ECD2C1" d="M851 449h4c-1.436 6.739-3.14 13.366-5 20h-1q.213-3.594.438-7.187l.119-2.042c.232-3.668.615-7.188 1.443-10.771"/><path fill="#B8BCC7" d="M832 1011c4.1 2.881 6.326 5.244 8 10 .23 3.35.179 6.648 0 10h-1l-.262-1.941c-1.037-6.387-2.797-9.977-6.738-15.059z"/><path fill="#E6DDD1" d="M572 766h4c1.188 3.565 1.263 6.256 1 10-1.5 2.438-1.5 2.438-3 4l-3-1h2l1-11h-2z"/><path fill="#C1C4CE" d="m1168.688 926.938 3.011.027L1174 927v1l-1.977.078c-5.928.385-9.108 1.411-14.023 4.922-2.375-.25-2.375-.25-4-1 5.192-3.577 8.388-5.137 14.688-5.062"/><path fill="#DABEB0" d="M1012 486c2 3 2 3 2 5h-9v-2z"/><path fill="#DDDFE4" d="M837 1021c2.602 2.602 2.298 3.824 2.313 7.438l.05 2.933c-.41 2.966-1.043 3.823-3.363 5.629l.219-2.738.281-3.574.281-3.551A88 88 0 0 0 837 1021"/><path fill="#F3EDDE" d="m414 737 3 1q-1.935 1.722-3.875 3.438l-2.18 1.933C409 745 409 745 407 746c1.34-4.383 3.122-6.54 7-9"/><path d="m1498 600 1 4ZM1494 463l1 4ZM1495 427l1 4ZM1414 261l3 1ZM993 309l2 1ZM1440 273l2 1ZM1411 260l2 1ZM1408 260l2 1Z"/></svg>